<svg width="72" height="72" viewBox="0 0 72 72" fill="none" xmlns="http://www.w3.org/2000/svg">
<path d="M36 12C39.1826 12 42.2348 13.2643 44.4853 15.5147C46.7357 17.7652 48 20.8174 48 24C48 27.1826 46.7357 30.2348 44.4853 32.4853C42.2348 34.7357 39.1826 36 36 36C32.8174 36 29.7652 34.7357 27.5147 32.4853C25.2643 30.2348 24 27.1826 24 24C24 20.8174 25.2643 17.7652 27.5147 15.5147C29.7652 13.2643 32.8174 12 36 12ZM36 18C34.4087 18 32.8826 18.6321 31.7574 19.7574C30.6321 20.8826 30 22.4087 30 24C30 25.5913 30.6321 27.1174 31.7574 28.2426C32.8826 29.3679 34.4087 30 36 30C37.5913 30 39.1174 29.3679 40.2426 28.2426C41.3679 27.1174 42 25.5913 42 24C42 22.4087 41.3679 20.8826 40.2426 19.7574C39.1174 18.6321 37.5913 18 36 18ZM36 39C44.01 39 60 42.99 60 51V60H12V51C12 42.99 27.99 39 36 39ZM36 44.7C27.09 44.7 17.7 49.08 17.7 51V54.3H54.3V51C54.3 49.08 44.91 44.7 36 44.7Z" fill="#323844"/>
</svg>
