<svg width="72" height="72" viewBox="0 0 72 72" fill="none" xmlns="http://www.w3.org/2000/svg">
<path d="M36 6C19.458 6 6 19.458 6 36C6 52.542 19.458 66 36 66C52.542 66 66 52.542 66 36C66 19.458 52.542 6 36 6ZM12 36C12 33.303 12.468 30.714 13.293 28.293L18 33L24 39V45L30 51L33 54V59.793C21.183 58.308 12 48.216 12 36ZM54.99 50.619C53.031 49.041 50.061 48 48 48V45C48 43.4087 47.3679 41.8826 46.2426 40.7574C45.1174 39.6321 43.5913 39 42 39H30V30C31.5913 30 33.1174 29.3679 34.2426 28.2426C35.3679 27.1174 36 25.5913 36 24V21H39C40.5913 21 42.1174 20.3679 43.2426 19.2426C44.3679 18.1174 45 16.5913 45 15V13.767C53.784 17.334 60 25.95 60 36C59.9995 41.2941 58.2368 46.4374 54.99 50.619Z" fill="#323844"/>
</svg>
