<svg width="72" height="72" viewBox="0 0 72 72" fill="none" xmlns="http://www.w3.org/2000/svg">
<path d="M60 36C60 29.6348 57.4714 23.5303 52.9706 19.0294C48.4697 14.5286 42.3652 12 36 12C29.6348 12 23.5303 14.5286 19.0294 19.0294C14.5286 23.5303 12 29.6348 12 36C12 42.3652 14.5286 48.4697 19.0294 52.9706C23.5303 57.4714 29.6348 60 36 60C42.3652 60 48.4697 57.4714 52.9706 52.9706C57.4714 48.4697 60 42.3652 60 36ZM66 36C66 43.9565 62.8393 51.5871 57.2132 57.2132C51.5871 62.8393 43.9565 66 36 66C32.0603 66 28.1593 65.224 24.5195 63.7164C20.8797 62.2087 17.5726 59.999 14.7868 57.2132C9.16071 51.5871 6 43.9565 6 36C6 28.0435 9.16071 20.4129 14.7868 14.7868C20.4129 9.16071 28.0435 6 36 6C39.9397 6 43.8407 6.77597 47.4805 8.28361C51.1203 9.79126 54.4274 12.001 57.2132 14.7868C59.999 17.5726 62.2087 20.8797 63.7164 24.5195C65.224 28.1593 66 32.0603 66 36ZM30 28.5C30 30.9 27.9 33 25.5 33C23.1 33 21 30.9 21 28.5C21 26.1 23.1 24 25.5 24C27.9 24 30 26.1 30 28.5ZM51 28.5C51 30.9 48.9 33 46.5 33C44.1 33 42 30.9 42 28.5C42 26.1 44.1 24 46.5 24C48.9 24 51 26.1 51 28.5ZM36 51.69C30.75 51.69 26.13 49.5 23.43 46.26L27.69 42C29.04 44.16 32.25 45.69 36 45.69C39.75 45.69 42.96 44.16 44.31 42L48.57 46.26C45.87 49.5 41.25 51.69 36 51.69Z" fill="#323844"/>
</svg>
