<svg width="65" height="64" viewBox="0 0 65 64" fill="none" xmlns="http://www.w3.org/2000/svg">
<g clip-path="url(#clip0_50_49)">
<path d="M45.4498 50.9866C45.3075 50.9866 45.1298 50.9155 44.9164 50.7733C44.7031 50.6311 44.5609 50.4178 44.4898 50.1333C44.4187 49.8489 44.4542 49.6355 44.5964 49.4933L45.2364 48.8533H45.0231C44.8809 48.8533 44.7387 48.7111 44.5964 48.4266C44.4542 48.1422 44.3831 47.9289 44.3831 47.7866L45.2364 43.9466H42.2498C41.9653 43.9466 41.752 43.7333 41.6098 43.3066H41.3964C41.112 43.1644 40.8987 42.9866 40.7564 42.7733C40.6142 42.56 40.6142 42.3822 40.7564 42.24L44.1698 32.2133C44.1698 31.9289 44.4542 31.7866 45.0231 31.7866H50.5698C50.8542 31.7866 51.0675 31.8933 51.2098 32.1066C51.352 32.32 51.4231 32.5689 51.4231 32.8533L49.2898 38.1866H53.9831C54.2675 38.1866 54.5164 38.3289 54.7298 38.6133C54.9431 38.8978 54.9075 39.1822 54.6231 39.4666L46.0898 50.56C45.9475 50.8444 45.7342 50.9866 45.4498 50.9866ZM42.6764 42.0266H46.5164C46.8009 42.0266 47.0498 42.1689 47.2631 42.4533C47.4764 42.7378 47.512 43.0222 47.3698 43.3066L46.5164 47.36L52.0631 39.8933H48.0098C47.7253 39.8933 47.512 39.7511 47.3698 39.4666C47.2275 39.1822 47.1564 38.8978 47.1564 38.6133L49.2898 33.4933H45.6631L42.6764 42.0266ZM49.9298 58.24H45.4498C45.1653 58.24 44.952 58.1689 44.8098 58.0266C44.6675 57.8844 44.5964 57.6711 44.5964 57.3866C44.5964 57.1022 44.6675 56.8533 44.8098 56.64C44.952 56.4266 45.1653 56.32 45.4498 56.32H49.0764V54.6133C49.0764 54.4711 49.1475 54.2933 49.2898 54.08C49.432 53.8666 49.6453 53.76 49.9298 53.76C51.6364 53.4755 53.1298 52.8355 54.4098 51.84C54.8364 51.5555 55.192 51.6266 55.4764 52.0533L56.7564 53.3333L58.8898 51.2L57.6098 49.92C57.3253 49.4933 57.3253 49.0666 57.6098 48.64C58.4631 47.5022 59.1031 46.08 59.5298 44.3733C59.5298 44.0889 59.6009 43.8755 59.7431 43.7333C59.8853 43.5911 60.0987 43.52 60.3831 43.52H62.0898V40.5333H60.3831C60.0987 40.5333 59.8853 40.4622 59.7431 40.32C59.6009 40.1778 59.5298 39.9644 59.5298 39.68C59.2453 38.1155 58.6053 36.6222 57.6098 35.2C57.4675 35.0578 57.3964 34.88 57.3964 34.6666C57.3964 34.4533 57.4675 34.2755 57.6098 34.1333L58.8898 32.8533L56.7564 30.72L55.4764 32C55.192 32.2844 54.8364 32.2844 54.4098 32C52.9875 31.0044 51.4942 30.3644 49.9298 30.08C49.5031 29.9378 49.2898 29.6533 49.2898 29.2266V27.3066H46.0898V29.2266C46.0898 29.7955 45.8764 30.08 45.4498 30.08C43.8853 30.3644 42.3209 31.0044 40.7564 32C40.472 32.1422 40.1164 32.0711 39.6898 31.7866L38.6231 30.5066L36.2764 32.64L37.5564 33.92C37.9831 34.2044 38.0542 34.56 37.7698 34.9866C36.7742 36.5511 36.1342 38.0444 35.8498 39.4666C35.7075 40.0355 35.4231 40.32 34.9964 40.32H33.0764C32.792 40.32 32.5787 40.2133 32.4364 40C32.2942 39.7866 32.2231 39.5733 32.2231 39.36C32.2231 39.1466 32.2942 38.9333 32.4364 38.72C32.5787 38.5066 32.792 38.4 33.0764 38.4H34.1431C34.4275 37.2622 34.9964 35.9822 35.8498 34.56L34.5698 33.28C34.2853 33.1378 34.1431 32.9244 34.1431 32.64C34.1431 32.3555 34.2853 32.1422 34.5698 32L37.9831 28.3733C38.1253 28.2311 38.3031 28.16 38.5164 28.16C38.7298 28.16 38.9787 28.2311 39.2631 28.3733L40.5431 29.8666C41.8231 29.1555 43.1031 28.6578 44.3831 28.3733V26.4533C44.3831 26.1689 44.4898 25.92 44.7031 25.7066C44.9164 25.4933 45.1653 25.3866 45.4498 25.3866H50.3564C50.4987 25.3866 50.6764 25.4933 50.8898 25.7066C51.1031 25.92 51.2098 26.1689 51.2098 26.4533V28.3733C52.4898 28.6578 53.7698 29.1555 55.0498 29.8666L56.3298 28.5866C56.472 28.4444 56.6853 28.3733 56.9698 28.3733C57.2542 28.3733 57.4675 28.4444 57.6098 28.5866L61.0231 32C61.1653 32.2844 61.2364 32.5333 61.2364 32.7466C61.2364 32.96 61.1653 33.1378 61.0231 33.28L59.5298 34.7733C60.2409 35.7689 60.8098 36.9778 61.2364 38.4H63.1564C63.2987 38.4 63.4764 38.5066 63.6898 38.72C63.9031 38.9333 64.0098 39.1822 64.0098 39.4666V44.3733C64.0098 44.6578 63.9031 44.8711 63.6898 45.0133C63.4764 45.1555 63.2987 45.2266 63.1564 45.2266H61.0231C60.7387 46.5066 60.2409 47.7866 59.5298 49.0666L60.8098 50.3466C60.952 50.6311 61.0231 50.88 61.0231 51.0933C61.0231 51.3066 60.952 51.4844 60.8098 51.6266L57.3964 55.2533C57.2542 55.3955 57.0409 55.4666 56.7564 55.4666C56.472 55.4666 56.2587 55.3955 56.1164 55.2533L54.6231 53.76C53.4853 54.4711 52.2053 54.9689 50.7831 55.2533V57.1733C50.9253 57.4578 50.8898 57.7066 50.6764 57.92C50.4631 58.1333 50.2142 58.24 49.9298 58.24ZM27.9564 59.3066C27.3875 59.3066 27.1031 59.0222 27.1031 58.4533L24.7564 44.16C24.7564 43.5911 25.0409 43.2355 25.6098 43.0933C25.8942 43.0933 26.1431 43.1644 26.3564 43.3066C26.5698 43.4489 26.6764 43.6622 26.6764 43.9466L28.8098 58.24C28.8098 58.8089 28.5253 59.1644 27.9564 59.3066ZM18.5698 59.3066C18.4275 59.3066 18.2853 59.3066 18.1431 59.3066C18.0009 59.3066 17.8587 59.2 17.7164 58.9866C17.5742 58.7733 17.5031 58.5244 17.5031 58.24L19.8498 43.9466C19.8498 43.6622 19.9564 43.4489 20.1698 43.3066C20.3831 43.1644 20.5964 43.0933 20.8098 43.0933C21.0231 43.0933 21.2009 43.2 21.3431 43.4133C21.4853 43.6266 21.5564 43.8755 21.5564 44.16L19.4231 58.4533C19.4231 58.7378 19.3164 58.9511 19.1031 59.0933C18.8898 59.2355 18.712 59.3066 18.5698 59.3066ZM19.4231 43.52C19.1387 43.52 18.9253 43.4489 18.7831 43.3066L14.5164 39.8933C14.3742 39.7511 14.3031 39.5378 14.3031 39.2533C14.3031 38.9689 14.3742 38.72 14.5164 38.5066C14.6587 38.2933 14.8364 38.1866 15.0498 38.1866C15.2631 38.1866 15.512 38.2578 15.7964 38.4L19.4231 41.6L22.8364 39.4666C22.9787 39.3244 23.192 39.2533 23.4764 39.2533C23.7609 39.2533 23.9387 39.36 24.0098 39.5733C24.0809 39.7866 24.1164 40.0355 24.1164 40.32C24.1164 40.6044 23.9742 40.8178 23.6898 40.96L19.8498 43.3066C19.7075 43.4489 19.5653 43.52 19.4231 43.52ZM45.4498 59.3066H0.863099C0.720877 59.3066 0.543099 59.2 0.329766 58.9866C0.116432 58.7733 0.00976562 58.5244 0.00976562 58.24V48.8533C0.29421 45.0133 2.49865 42.1689 6.6231 40.32C9.04088 39.1822 11.7431 38.4711 14.7298 38.1866L17.0764 35.2C17.2187 35.0578 17.432 34.9866 17.7164 34.9866C18.0009 34.9866 18.2142 35.0578 18.3564 35.2L23.0498 39.04L27.9564 35.2C28.0987 35.0578 28.312 34.9866 28.5964 34.9866C28.8809 34.9866 29.0942 35.0578 29.2364 35.2L31.7964 38.1866C34.7831 38.4711 37.4142 39.1822 39.6898 40.32C43.9564 42.3111 46.1609 45.2266 46.3031 49.0666V58.24C46.3031 58.5244 46.232 58.7733 46.0898 58.9866C45.9475 59.2 45.7342 59.3066 45.4498 59.3066ZM1.92977 57.3866H44.5964V49.28C44.4542 46.72 43.2453 44.6578 40.9698 43.0933C39.2631 41.9555 37.1298 41.1022 34.5698 40.5333C33.1475 40.2489 32.0098 40.1066 31.1564 40.1066C31.0142 40.1066 30.8009 39.9644 30.5164 39.68L28.3831 37.12L23.6898 40.7466C23.5475 40.8889 23.3698 40.96 23.1564 40.96C22.9431 40.96 22.7653 40.8889 22.6231 40.7466L17.9298 37.12L15.7964 39.68C15.7964 39.8222 15.5831 39.9644 15.1564 40.1066C14.4453 40.1066 13.3075 40.2489 11.7431 40.5333C9.32532 41.1022 7.2631 41.9555 5.55643 43.0933C3.28088 44.6578 2.07199 46.6489 1.92977 49.0666V57.3866ZM23.2631 35.4133C23.2631 35.4133 23.192 35.4133 23.0498 35.4133C20.0631 35.4133 17.6453 34.56 15.7964 32.8533C14.3742 31.4311 13.6631 29.7244 13.6631 27.7333H12.5964C11.8853 27.7333 11.352 27.3422 10.9964 26.56C10.6409 25.7778 10.4631 24.8178 10.4631 23.68C10.4631 22.5422 10.6409 21.5822 10.9964 20.8C11.352 20.0177 11.8853 19.6266 12.5964 19.6266H13.6631V19.2C13.6631 18.2044 13.8764 17.0666 14.3031 15.7866C14.7298 14.5066 15.3342 13.5466 16.1164 12.9066C16.8987 12.2666 17.8587 12.16 18.9964 12.5866C20.4187 13.0133 22.0898 13.44 24.0098 13.8666C25.9298 14.2933 27.032 14.4355 27.3164 14.2933C28.7387 13.8666 29.8764 14.0089 30.7298 14.72C32.0098 15.5733 32.6498 17.0666 32.6498 19.2V19.6266H33.7164C34.4275 19.6266 34.9609 20.0177 35.3164 20.8C35.672 21.5822 35.8498 22.5422 35.8498 23.68C35.8498 24.8178 35.672 25.7778 35.3164 26.56C34.9609 27.3422 34.4275 27.7333 33.7164 27.7333H32.6498C32.6498 29.7244 31.9387 31.4311 30.5164 32.8533C29.8053 33.7066 28.8098 34.3466 27.5298 34.7733C26.2498 35.2 24.8275 35.4133 23.2631 35.4133ZM23.2631 33.7066C24.5431 33.7066 25.7164 33.4933 26.7831 33.0666C27.8498 32.64 28.7387 32.0711 29.4498 31.36C30.4453 30.5066 30.9431 29.2978 30.9431 27.7333V26.88C30.9431 26.5955 31.0498 26.3822 31.2631 26.24C31.4764 26.0978 31.7253 26.0266 32.0098 26.0266H33.7164C34.0009 25.4578 34.1431 24.6755 34.1431 23.68C34.1431 22.6844 34.0009 21.9022 33.7164 21.3333H32.0098C31.7253 21.3333 31.4764 21.2622 31.2631 21.12C31.0498 20.9778 30.9431 20.7644 30.9431 20.48V18.9866C30.9431 18.4178 30.8364 17.8489 30.6231 17.28C30.4098 16.7111 30.1253 16.2844 29.7698 16C29.4142 15.7155 28.8453 15.68 28.0631 15.8933C27.2809 16.1066 25.4675 15.9289 22.6231 15.36C20.9164 14.9333 19.4942 14.5066 18.3564 14.08C18.072 13.9378 17.6809 14.0444 17.1831 14.4C16.6853 14.7555 16.2942 15.3955 16.0098 16.32C15.7253 17.2444 15.5831 18.1333 15.5831 18.9866V20.48C15.5831 20.7644 15.4764 20.9778 15.2631 21.12C15.0498 21.2622 14.8009 21.3333 14.5164 21.3333H12.8098C12.5253 21.9022 12.3831 22.72 12.3831 23.7866C12.3831 24.8533 12.5253 25.6 12.8098 26.0266H14.5164C14.8009 26.0266 15.0498 26.0978 15.2631 26.24C15.4764 26.3822 15.5831 26.5955 15.5831 26.88V27.7333C15.5831 29.1555 16.0809 30.3644 17.0764 31.36C17.7875 32.0711 18.6764 32.64 19.7431 33.0666C20.8098 33.4933 21.9831 33.7066 23.2631 33.7066ZM11.7431 22.4C11.3164 22.4 11.032 22.1155 10.8898 21.5466C10.7475 20.9778 10.6053 20.1955 10.4631 19.2C10.3209 17.3511 10.392 15.7866 10.6764 14.5066C11.2453 11.3778 12.8098 8.95997 15.3698 7.25331C17.6453 5.68886 20.2764 4.83553 23.2631 4.69331C23.5475 4.69331 23.7609 4.79997 23.9031 5.01331C24.0453 5.22664 24.1164 5.43997 24.1164 5.65331C24.1164 5.86664 24.0098 6.07997 23.7964 6.2933C23.5831 6.50664 23.4053 6.6133 23.2631 6.6133C20.7031 6.6133 18.3564 7.32442 16.2231 8.74664C14.0898 10.1689 12.8098 12.16 12.3831 14.72C12.2409 16 12.2409 17.3866 12.3831 18.88C12.5253 20.3733 12.632 21.1911 12.7031 21.3333C12.7742 21.4755 12.7387 21.6533 12.5964 21.8666C12.4542 22.08 12.2409 22.1866 11.9564 22.1866L11.7431 22.4ZM17.9298 36.6933C17.6453 36.6933 17.3964 36.5866 17.1831 36.3733C16.9698 36.16 16.8631 35.9111 16.8631 35.6266V33.28C16.8631 32.9955 16.9698 32.7466 17.1831 32.5333C17.3964 32.32 17.6453 32.2133 17.9298 32.2133C18.2142 32.2133 18.4275 32.32 18.5698 32.5333C18.712 32.7466 18.7831 32.9955 18.7831 33.28V35.6266C18.7831 35.9111 18.6764 36.16 18.4631 36.3733C18.2498 36.5866 18.072 36.6933 17.9298 36.6933ZM27.1031 43.52C26.8187 43.52 26.6053 43.4489 26.4631 43.3066L22.6231 40.96C22.4809 40.8178 22.3742 40.6044 22.3031 40.32C22.232 40.0355 22.2675 39.7866 22.4098 39.5733C22.552 39.36 22.7298 39.2533 22.9431 39.2533C23.1564 39.2533 23.4053 39.3244 23.6898 39.4666L26.8898 41.6L30.7298 38.4C30.872 38.2578 31.0498 38.1866 31.2631 38.1866C31.4764 38.1866 31.6898 38.2933 31.9031 38.5066C32.1164 38.72 32.2231 38.9689 32.2231 39.2533C32.2231 39.5378 32.0809 39.7511 31.7964 39.8933L27.7431 43.3066C27.6009 43.4489 27.3875 43.52 27.1031 43.52ZM34.5698 22.4C34.5698 22.4 34.4987 22.3644 34.3564 22.2933C34.2142 22.2222 34.072 22.08 33.9298 21.8666C33.7875 21.6533 33.7164 21.4044 33.7164 21.12C34.2853 18.7022 34.3564 16.64 33.9298 14.9333C33.5031 12.2311 32.152 10.1689 29.8764 8.74664C28.0275 7.32442 25.8231 6.6133 23.2631 6.6133C22.9787 6.6133 22.7653 6.50664 22.6231 6.2933C22.4809 6.07997 22.4098 5.86664 22.4098 5.65331C22.4098 5.43997 22.4809 5.22664 22.6231 5.01331C22.7653 4.79997 22.9787 4.69331 23.2631 4.69331C26.2498 4.83553 28.8809 5.68886 31.1564 7.25331C33.7164 8.95997 35.2809 11.3778 35.8498 14.5066C35.992 15.9289 35.992 17.4933 35.8498 19.2C35.8498 20.3377 35.7787 21.12 35.6364 21.5466C35.4942 21.8311 35.352 22.0444 35.2098 22.1866C35.0675 22.3289 34.8542 22.4 34.5698 22.4ZM28.5964 36.6933C28.312 36.6933 28.0987 36.5866 27.9564 36.3733C27.8142 36.16 27.7431 35.9111 27.7431 35.6266V33.28C27.7431 32.9955 27.8142 32.7466 27.9564 32.5333C28.0987 32.32 28.312 32.2133 28.5964 32.2133C28.8809 32.2133 29.0942 32.32 29.2364 32.5333C29.3787 32.7466 29.4498 32.9955 29.4498 33.28V35.6266C29.4498 35.9111 29.3787 36.16 29.2364 36.3733C29.0942 36.5866 28.8809 36.6933 28.5964 36.6933ZM23.2631 47.36C22.9787 47.36 22.7653 47.2889 22.6231 47.1466L18.7831 43.3066C18.6409 43.1644 18.5698 42.9511 18.5698 42.6666C18.5698 42.3822 18.6409 42.1689 18.7831 42.0266C18.9253 41.8844 19.1387 41.8133 19.4231 41.8133C19.7075 41.8133 19.9209 41.8844 20.0631 42.0266L23.2631 45.2266L26.4631 42.0266C26.6053 41.8844 26.8187 41.8133 27.1031 41.8133C27.3875 41.8133 27.6364 41.8844 27.8498 42.0266C28.0631 42.1689 28.1698 42.3822 28.1698 42.6666C28.1698 42.9511 28.0275 43.1644 27.7431 43.3066L23.9031 47.1466C23.6187 47.2889 23.4053 47.36 23.2631 47.36Z" fill="#323844"/>
</g>
<defs>
<clipPath id="clip0_50_49">
<rect width="64.02" height="64" fill="white" transform="matrix(1 0 0 -1 0 64)"/>
</clipPath>
</defs>
</svg>
