<svg width="65" height="64" viewBox="0 0 65 64" fill="none" xmlns="http://www.w3.org/2000/svg">
<g clip-path="url(#clip0_50_63)">
<path d="M62.9431 0H56.9698C56.6853 0 56.4364 0.106667 56.2231 0.32C56.0098 0.533333 55.9742 0.782219 56.1164 1.06667V4.90667H52.0631V4.05333C52.0631 3.76889 51.9564 3.52 51.7431 3.30666C51.5298 3.09333 51.2809 2.98666 50.9964 2.98666C50.712 2.98666 50.4631 3.09333 50.2498 3.30666C50.0364 3.52 49.9298 3.76889 49.9298 4.05333V4.90667H48.0098V4.05333C48.0098 3.76889 47.9031 3.52 47.6898 3.30666C47.4764 3.09333 47.2275 2.98666 46.9431 2.98666C46.6587 2.98666 46.4453 3.09333 46.3031 3.30666C46.1609 3.52 46.0898 3.76889 46.0898 4.05333V4.90667H45.0231C44.4542 4.90667 44.0987 5.26222 43.9564 5.97333C43.8142 6.68444 43.4587 7.68 42.8898 8.96C41.4675 11.3778 39.5475 13.7244 37.1298 16C33.5742 19.1289 29.0942 21.8311 23.6898 24.1067L0.436432 39.2533C0.151988 39.3956 0.00976562 39.6089 0.00976562 39.8933V45.0133C0.00976562 45.44 0.187543 45.7244 0.543099 45.8667C0.898655 46.0089 1.21865 46.0089 1.5031 45.8667L4.0631 44.3733V62.9333C4.0631 63.2178 4.13421 63.4667 4.27643 63.68C4.41865 63.8933 4.63199 64 4.91643 64H43.1031C43.3875 64 43.6009 63.8933 43.7431 63.68C43.8853 63.4667 43.9564 63.2178 43.9564 62.9333V44.3733L46.5164 45.8667C46.8009 46.0089 47.1209 45.9733 47.4764 45.76C47.832 45.5467 48.0098 45.2978 48.0098 45.0133V39.8933C48.0098 39.6089 47.8675 39.3956 47.5831 39.2533L26.8898 25.8133C31.1564 25.2444 34.8542 24.1778 37.9831 22.6133C40.4009 21.4756 42.392 20.1244 43.9564 18.56V20.0533C43.9564 20.3378 44.0631 20.5511 44.2764 20.6933C44.4898 20.8356 44.7387 20.9067 45.0231 20.9067H56.1164V62.9333C56.1164 63.2178 56.1875 63.4667 56.3298 63.68C56.472 63.8933 56.6853 64 56.9698 64H62.9431C63.2275 64 63.4764 63.8933 63.6898 63.68C63.9031 63.4667 64.0098 63.2178 64.0098 62.9333V1.06667C64.0098 0.782219 63.9031 0.533333 63.6898 0.32C63.4764 0.106667 63.2275 0 62.9431 0ZM62.0898 11.0933V14.9333H58.0364V11.0933H62.0898ZM58.0364 1.92H62.0898V4.90667H58.0364V1.92ZM46.0898 7.04H62.0898V8.96H46.0898V7.04ZM29.0231 62.08H18.9964V49.0667H29.0231V62.08ZM30.9431 62.08V48C30.9431 47.7156 30.872 47.4667 30.7298 47.2533C30.5875 47.04 30.3742 46.9333 30.0898 46.9333H17.9298C17.6453 46.9333 17.432 47.04 17.2898 47.2533C17.1475 47.4667 17.0764 47.7156 17.0764 48V62.08H5.9831V43.0933L24.1164 32.2133L42.0364 43.0933V62.08H30.9431ZM46.0898 43.3067L43.5298 41.8133L24.5431 30.08C24.2587 29.9378 23.9031 29.9378 23.4764 30.08L1.92977 43.3067V40.5333L24.1164 26.24L46.0898 40.5333V43.3067ZM30.0898 23.2533C36.632 19.5556 41.3253 15.2889 44.1698 10.4533C44.312 10.88 44.5964 11.0933 45.0231 11.0933H56.1164V14.9333H52.0631V14.08C52.0631 13.7956 51.9564 13.5467 51.7431 13.3333C51.5298 13.12 51.2809 13.0133 50.9964 13.0133C50.712 13.0133 50.4631 13.12 50.2498 13.3333C50.0364 13.5467 49.9298 13.7956 49.9298 14.08V14.9333H48.0098V14.08C48.0098 13.7956 47.9031 13.5467 47.6898 13.3333C47.4764 13.12 47.2275 13.0133 46.9431 13.0133C46.6587 13.0133 46.4453 13.12 46.3031 13.3333C46.1609 13.5467 46.0898 13.7956 46.0898 14.08V14.9333H45.0231C44.7387 14.9333 44.4542 15.1467 44.1698 15.5733C43.6009 16.4267 42.5342 17.4222 40.9698 18.56C38.1253 20.6933 34.4987 22.2578 30.0898 23.2533ZM46.0898 17.0667H62.0898V18.9867H46.0898V17.0667ZM58.0364 62.08V20.9067H62.0898V62.08H58.0364ZM24.1164 36.0533C22.9787 36.0533 22.0187 36.4444 21.2364 37.2267C20.4542 38.0089 20.0631 38.9333 20.0631 40C20.0631 41.0667 20.4542 41.9911 21.2364 42.7733C22.0187 43.5556 22.9431 43.9467 24.0098 43.9467C25.0764 43.9467 26.0009 43.5556 26.7831 42.7733C27.5653 41.9911 27.9564 41.0667 27.9564 40C27.9564 38.9333 27.5653 38.0089 26.7831 37.2267C26.0009 36.4444 25.0409 36.0533 23.9031 36.0533H24.1164ZM24.1164 42.0267C23.5475 42.0267 23.0498 41.8133 22.6231 41.3867C22.1964 40.96 21.9831 40.4978 21.9831 40C21.9831 39.5022 22.1964 39.04 22.6231 38.6133C23.0498 38.1867 23.512 37.9733 24.0098 37.9733C24.5075 37.9733 24.9698 38.1867 25.3964 38.6133C25.8231 39.04 26.0364 39.5022 26.0364 40C26.0364 40.4978 25.8231 40.96 25.3964 41.3867C24.9698 41.8133 24.472 42.0267 23.9031 42.0267H24.1164ZM24.9698 55.04C24.9698 55.3244 25.0764 55.5378 25.2898 55.68C25.5031 55.8222 25.752 55.8933 26.0364 55.8933C26.3209 55.8933 26.5698 55.8222 26.7831 55.68C26.9964 55.5378 27.1031 55.3244 27.1031 55.04C27.1031 54.7556 26.9964 54.5067 26.7831 54.2933C26.5698 54.08 26.3209 53.9733 26.0364 53.9733C25.752 53.9733 25.5031 54.08 25.2898 54.2933C25.0764 54.5067 24.9698 54.7556 24.9698 55.04Z" fill="#323844"/>
</g>
<defs>
<clipPath id="clip0_50_63">
<rect width="64.02" height="64" fill="white" transform="matrix(1 0 0 -1 0 64)"/>
</clipPath>
</defs>
</svg>
