<svg width="65" height="64" viewBox="0 0 65 64" fill="none" xmlns="http://www.w3.org/2000/svg">
<g clip-path="url(#clip0_50_145)">
<path d="M20.2764 34.7733H31.3698V7.46667L25.8231 1.70667L20.2764 7.46667V34.7733ZM32.0098 36.2667H19.6364C19.4942 36.2667 19.352 36.1956 19.2098 36.0533C19.0675 35.9111 18.9964 35.7689 18.9964 35.6267V7.04C18.9964 6.89778 19.0675 6.75555 19.2098 6.61333L25.3964 0.213333C25.5387 0.0711098 25.6809 0 25.8231 0C25.9653 0 26.1075 0.0711098 26.2498 0.213333L32.4364 6.61333C32.5787 6.75555 32.6498 6.89778 32.6498 7.04V35.6267C32.6498 35.7689 32.5787 35.9111 32.4364 36.0533C32.2942 36.1956 32.152 36.2667 32.0098 36.2667ZM42.0364 59.7333C41.752 59.7333 41.5387 59.5911 41.3964 59.3067L31.5831 36.2667H20.0631L10.2498 59.3067C10.1075 59.4489 9.92977 59.5556 9.71643 59.6267C9.5031 59.6978 9.32532 59.6978 9.1831 59.6267C9.04088 59.5556 8.93421 59.4133 8.8631 59.2C8.79199 58.9867 8.82754 58.8089 8.96977 58.6667L18.9964 35.2C19.1387 34.9156 19.352 34.7733 19.6364 34.7733H32.0098C32.2942 34.7733 32.5075 34.9156 32.6498 35.2L42.6764 58.6667C42.8187 58.8089 42.8542 58.9867 42.7831 59.2C42.712 59.4133 42.6053 59.52 42.4631 59.52L42.0364 59.7333ZM49.2898 19.4133H32.0098C31.8675 19.4133 31.7253 19.3422 31.5831 19.2C31.4409 19.0578 31.3698 18.88 31.3698 18.6667C31.3698 18.4533 31.4409 18.2756 31.5831 18.1333C31.7253 17.9911 31.8675 17.92 32.0098 17.92H46.3031L31.7964 11.0933H19.8498L5.3431 17.92H19.6364C19.7787 17.92 19.9209 17.9911 20.0631 18.1333C20.2053 18.2756 20.2764 18.4533 20.2764 18.6667C20.2764 18.88 20.2053 19.0578 20.0631 19.2C19.9209 19.3422 19.7787 19.4133 19.6364 19.4133H2.35643C1.92977 19.4133 1.68088 19.2356 1.60977 18.88C1.53865 18.5244 1.64532 18.2756 1.92977 18.1333L19.4231 9.81333H19.6364H32.0098H32.2231L49.7164 18.1333C50.0009 18.2756 50.1075 18.5244 50.0364 18.88C49.9653 19.2356 49.7164 19.4133 49.2898 19.4133ZM5.55643 62.5067H13.4498V59.7333H5.55643V62.5067ZM14.0898 64H4.91643C4.77421 64 4.63199 63.9289 4.48977 63.7867C4.34754 63.6444 4.27643 63.5022 4.27643 63.36V58.88C4.27643 58.7378 4.34754 58.5956 4.48977 58.4533C4.63199 58.3111 4.77421 58.24 4.91643 58.24H14.0898C14.3742 58.24 14.552 58.3111 14.6231 58.4533C14.6942 58.5956 14.7298 58.7378 14.7298 58.88V63.36C14.7298 63.5022 14.6942 63.6444 14.6231 63.7867C14.552 63.9289 14.3742 64 14.0898 64ZM38.1964 62.5067H46.0898V59.7333H38.1964V62.5067ZM46.7298 64H37.5564C37.272 64 37.0942 63.9289 37.0231 63.7867C36.952 63.6444 36.9164 63.5022 36.9164 63.36V58.88C36.9164 58.7378 36.952 58.5956 37.0231 58.4533C37.0942 58.3111 37.272 58.24 37.5564 58.24H46.7298C46.872 58.24 47.0142 58.3111 47.1564 58.4533C47.2987 58.5956 47.3698 58.7378 47.3698 58.88V63.36C47.3698 63.5022 47.2987 63.6444 47.1564 63.7867C47.0142 63.9289 46.872 64 46.7298 64ZM14.5164 48C14.3742 48 14.232 47.8933 14.0898 47.68C13.9475 47.4667 13.8764 47.2533 13.8764 47.04C13.8764 46.8267 13.9475 46.72 14.0898 46.72L31.5831 34.9867C31.7253 34.8444 31.9031 34.8089 32.1164 34.88C32.3298 34.9511 32.472 35.0578 32.5431 35.2C32.6142 35.3422 32.6498 35.4844 32.6498 35.6267C32.6498 35.7689 32.5787 35.9111 32.4364 36.0533L14.9431 47.7867L14.5164 48ZM37.1298 48C36.9875 48 36.8453 47.9289 36.7031 47.7867L19.2098 36.0533C19.0675 35.9111 18.9964 35.7689 18.9964 35.6267C18.9964 35.4844 19.032 35.3422 19.1031 35.2C19.1742 35.0578 19.3164 34.9511 19.5298 34.88C19.7431 34.8089 19.9209 34.8444 20.0631 34.9867L37.5564 46.72C37.6987 46.72 37.7698 46.8267 37.7698 47.04C37.7698 47.2533 37.6987 47.4667 37.5564 47.68C37.4142 47.8933 37.272 48 37.1298 48ZM42.0364 59.7333C42.0364 59.7333 41.9653 59.6622 41.8231 59.52L14.3031 47.7867C14.1609 47.7867 14.0542 47.68 13.9831 47.4667C13.912 47.2533 13.912 47.0756 13.9831 46.9333C14.0542 46.7911 14.1609 46.6844 14.3031 46.6133C14.4453 46.5422 14.6587 46.5067 14.9431 46.5067L42.4631 58.24C42.6053 58.3822 42.712 58.5244 42.7831 58.6667C42.8542 58.8089 42.8542 59.0222 42.7831 59.3067C42.712 59.5911 42.4631 59.7333 42.0364 59.7333ZM9.60977 59.7333C9.1831 59.7333 8.93421 59.5911 8.8631 59.3067C8.79199 59.0222 8.79199 58.8089 8.8631 58.6667C8.93421 58.5244 9.04088 58.3822 9.1831 58.24L36.7031 46.5067C36.9875 46.5067 37.2009 46.5422 37.3431 46.6133C37.4853 46.6844 37.592 46.7911 37.6631 46.9333C37.7342 47.0756 37.7342 47.2533 37.6631 47.4667C37.592 47.68 37.4853 47.7867 37.3431 47.7867L9.60977 59.7333ZM2.35643 22.4C2.07199 22.4 1.85865 22.3289 1.71643 22.1867C1.57421 22.0444 1.5031 21.9022 1.5031 21.76V18.7733C1.5031 18.4889 1.57421 18.2756 1.71643 18.1333C1.85865 17.9911 2.03643 17.92 2.24977 17.92C2.4631 17.92 2.64088 17.9911 2.7831 18.1333C2.92532 18.2756 2.99643 18.4889 2.99643 18.7733V21.76C2.99643 21.9022 2.92532 22.0444 2.7831 22.1867C2.64088 22.3289 2.49865 22.4 2.35643 22.4ZM2.35643 22.4C2.07199 22.4 1.85865 22.5067 1.71643 22.72C1.57421 22.9333 1.5031 23.1467 1.5031 23.36C1.5031 23.5733 1.57421 23.7511 1.71643 23.8933C1.85865 24.0356 2.03643 24.1067 2.24977 24.1067C2.4631 24.1067 2.64088 24.0356 2.7831 23.8933C2.92532 23.7511 2.99643 23.5733 2.99643 23.36C2.99643 23.1467 2.92532 22.9333 2.7831 22.72C2.64088 22.5067 2.49865 22.4 2.35643 22.4ZM2.35643 25.3867C1.64532 25.3867 1.07643 25.1733 0.649766 24.7467C0.223099 24.32 0.00976562 23.8222 0.00976562 23.2533C0.00976562 22.6844 0.223099 22.1867 0.649766 21.76C1.07643 21.3333 1.60977 21.12 2.24977 21.12C2.88977 21.12 3.4231 21.3333 3.84977 21.76C4.27643 22.1867 4.48977 22.6844 4.48977 23.2533C4.48977 23.8222 4.27643 24.32 3.84977 24.7467C3.4231 25.1733 2.92532 25.3867 2.35643 25.3867ZM49.2898 22.4C49.1475 22.4 49.0053 22.3289 48.8631 22.1867C48.7209 22.0444 48.6498 21.9022 48.6498 21.76V18.7733C48.6498 18.4889 48.7209 18.2756 48.8631 18.1333C49.0053 17.9911 49.1831 17.92 49.3964 17.92C49.6098 17.92 49.7875 17.9911 49.9298 18.1333C50.072 18.2756 50.1431 18.4889 50.1431 18.7733V21.76C50.1431 21.9022 50.072 22.0444 49.9298 22.1867C49.7875 22.3289 49.5742 22.4 49.2898 22.4ZM49.2898 22.4C49.1475 22.4 49.0053 22.5067 48.8631 22.72C48.7209 22.9333 48.6498 23.1467 48.6498 23.36C48.6498 23.5733 48.7209 23.7511 48.8631 23.8933C49.0053 24.0356 49.1831 24.1067 49.3964 24.1067C49.6098 24.1067 49.7875 24.0356 49.9298 23.8933C50.072 23.7511 50.1431 23.5733 50.1431 23.36C50.1431 23.1467 50.072 22.9333 49.9298 22.72C49.7875 22.5067 49.5742 22.4 49.2898 22.4ZM49.2898 25.3867C48.7209 25.3867 48.2231 25.1733 47.7964 24.7467C47.3698 24.32 47.1564 23.8222 47.1564 23.2533C47.1564 22.6844 47.3698 22.1867 47.7964 21.76C48.2231 21.3333 48.7564 21.12 49.3964 21.12C50.0364 21.12 50.5698 21.3333 50.9964 21.76C51.4231 22.1867 51.6364 22.6844 51.6364 23.2533C51.6364 23.8222 51.4231 24.32 50.9964 24.7467C50.5698 25.1733 50.0009 25.3867 49.2898 25.3867ZM49.2898 32.2133H32.0098C31.8675 32.2133 31.7253 32.1422 31.5831 32C31.4409 31.8578 31.3698 31.68 31.3698 31.4667C31.3698 31.2533 31.4409 31.0756 31.5831 30.9333C31.7253 30.7911 31.8675 30.72 32.0098 30.72H46.3031L31.7964 23.8933H19.8498L5.3431 30.72H19.6364C19.7787 30.72 19.9209 30.7911 20.0631 30.9333C20.2053 31.0756 20.2764 31.2533 20.2764 31.4667C20.2764 31.68 20.2053 31.8578 20.0631 32C19.9209 32.1422 19.7787 32.2133 19.6364 32.2133H2.35643C1.92977 32.2133 1.68088 32 1.60977 31.5733C1.53865 31.1467 1.64532 30.8622 1.92977 30.72L19.4231 22.4H19.6364H32.0098H32.2231L49.7164 30.72C50.0009 30.8622 50.1075 31.1467 50.0364 31.5733C49.9653 32 49.7164 32.2133 49.2898 32.2133ZM19.6364 36.2667C19.4942 36.2667 19.352 36.1956 19.2098 36.0533C19.0675 35.9111 18.9964 35.7333 18.9964 35.52C18.9964 35.3067 19.0675 35.1289 19.2098 34.9867L31.5831 22.6133C31.7253 22.4711 31.8675 22.4 32.0098 22.4C32.152 22.4 32.2942 22.4711 32.4364 22.6133C32.5787 22.7556 32.6498 22.9333 32.6498 23.1467C32.6498 23.36 32.5787 23.5378 32.4364 23.68L20.0631 36.0533C19.9209 36.1956 19.7787 36.2667 19.6364 36.2667ZM32.0098 36.2667C31.8675 36.2667 31.7253 36.1956 31.5831 36.0533L19.2098 23.68C19.0675 23.5378 18.9964 23.36 18.9964 23.1467C18.9964 22.9333 19.0675 22.7556 19.2098 22.6133C19.352 22.4711 19.4942 22.4 19.6364 22.4C19.7787 22.4 19.9209 22.4711 20.0631 22.6133L32.4364 34.9867C32.5787 35.1289 32.6498 35.3067 32.6498 35.52C32.6498 35.7333 32.5787 35.9111 32.4364 36.0533C32.2942 36.1956 32.152 36.2667 32.0098 36.2667ZM49.2898 35.2C49.1475 35.2 49.0053 35.1289 48.8631 34.9867C48.7209 34.8444 48.6498 34.7022 48.6498 34.56V31.36C48.6498 31.2178 48.7209 31.0756 48.8631 30.9333C49.0053 30.7911 49.1831 30.72 49.3964 30.72C49.6098 30.72 49.7875 30.7911 49.9298 30.9333C50.072 31.0756 50.1431 31.2178 50.1431 31.36V34.56C50.1431 34.7022 50.072 34.8444 49.9298 34.9867C49.7875 35.1289 49.5742 35.2 49.2898 35.2ZM49.2898 35.2C49.1475 35.2 49.0053 35.2711 48.8631 35.4133C48.7209 35.5556 48.6498 35.7333 48.6498 35.9467C48.6498 36.16 48.7209 36.3378 48.8631 36.48C49.0053 36.6222 49.1831 36.6933 49.3964 36.6933C49.6098 36.6933 49.7875 36.6222 49.9298 36.48C50.072 36.3378 50.1431 36.16 50.1431 35.9467C50.1431 35.7333 50.072 35.5556 49.9298 35.4133C49.7875 35.2711 49.5742 35.2 49.2898 35.2ZM49.2898 38.1867C48.7209 38.1867 48.2231 37.9733 47.7964 37.5467C47.3698 37.12 47.1564 36.5867 47.1564 35.9467C47.1564 35.3067 47.3698 34.7733 47.7964 34.3467C48.2231 33.92 48.7564 33.7067 49.3964 33.7067C50.0364 33.7067 50.5698 33.92 50.9964 34.3467C51.4231 34.7733 51.6364 35.3067 51.6364 35.9467C51.6364 36.5867 51.4231 37.12 50.9964 37.5467C50.5698 37.9733 50.0009 38.1867 49.2898 38.1867ZM2.35643 35.2C2.07199 35.2 1.85865 35.1289 1.71643 34.9867C1.57421 34.8444 1.5031 34.7022 1.5031 34.56V31.36C1.5031 31.2178 1.57421 31.0756 1.71643 30.9333C1.85865 30.7911 2.03643 30.72 2.24977 30.72C2.4631 30.72 2.64088 30.7911 2.7831 30.9333C2.92532 31.0756 2.99643 31.2178 2.99643 31.36V34.56C2.99643 34.7022 2.92532 34.8444 2.7831 34.9867C2.64088 35.1289 2.49865 35.2 2.35643 35.2ZM2.35643 35.2C2.07199 35.2 1.85865 35.2711 1.71643 35.4133C1.57421 35.5556 1.5031 35.7333 1.5031 35.9467C1.5031 36.16 1.57421 36.3378 1.71643 36.48C1.85865 36.6222 2.03643 36.6933 2.24977 36.6933C2.4631 36.6933 2.64088 36.6222 2.7831 36.48C2.92532 36.3378 2.99643 36.16 2.99643 35.9467C2.99643 35.7333 2.92532 35.5556 2.7831 35.4133C2.64088 35.2711 2.49865 35.2 2.35643 35.2ZM2.35643 38.1867C1.64532 38.1867 1.07643 37.9733 0.649766 37.5467C0.223099 37.12 0.00976562 36.5867 0.00976562 35.9467C0.00976562 35.3067 0.223099 34.7733 0.649766 34.3467C1.07643 33.92 1.60977 33.7067 2.24977 33.7067C2.88977 33.7067 3.4231 33.92 3.84977 34.3467C4.27643 34.7733 4.48977 35.3067 4.48977 35.9467C4.48977 36.5867 4.27643 37.12 3.84977 37.5467C3.4231 37.9733 2.92532 38.1867 2.35643 38.1867ZM32.0098 23.8933C31.8675 23.8933 31.7253 23.8222 31.5831 23.68L19.2098 11.3067C19.0675 11.1644 18.9964 10.9867 18.9964 10.7733C18.9964 10.56 19.0675 10.3822 19.2098 10.24C19.352 10.0978 19.4942 10.0267 19.6364 10.0267C19.7787 10.0267 19.9209 10.0978 20.0631 10.24L32.4364 22.6133C32.5787 22.7556 32.6498 22.9333 32.6498 23.1467C32.6498 23.36 32.5787 23.5378 32.4364 23.68C32.2942 23.8222 32.152 23.8933 32.0098 23.8933ZM19.6364 23.8933C19.4942 23.8933 19.352 23.8222 19.2098 23.68C19.0675 23.5378 18.9964 23.36 18.9964 23.1467C18.9964 22.9333 19.0675 22.7556 19.2098 22.6133L31.5831 10.24C31.7253 10.0978 31.8675 10.0267 32.0098 10.0267C32.152 10.0267 32.2942 10.0978 32.4364 10.24C32.5787 10.3822 32.6498 10.56 32.6498 10.7733C32.6498 10.9867 32.5787 11.1644 32.4364 11.3067L20.0631 23.68C19.9209 23.8222 19.7787 23.8933 19.6364 23.8933Z" fill="#323844"/>
</g>
<defs>
<clipPath id="clip0_50_145">
<rect width="64.02" height="64" fill="white" transform="matrix(1 0 0 -1 0 64)"/>
</clipPath>
</defs>
</svg>
