<svg width="65" height="64" viewBox="0 0 65 64" fill="none" xmlns="http://www.w3.org/2000/svg">
<g clip-path="url(#clip0_50_159)">
<path d="M25.6098 6.4C25.8942 6.4 26.1431 6.29333 26.3564 6.08C26.5698 5.86667 26.6764 5.61778 26.6764 5.33334V1.06667C26.6764 0.782223 26.5698 0.533333 26.3564 0.32C26.1431 0.106667 25.8942 0 25.6098 0C25.3253 0 25.0764 0.106667 24.8631 0.32C24.6498 0.533333 24.5431 0.782223 24.5431 1.06667V5.33334C24.5431 5.61778 24.6498 5.86667 24.8631 6.08C25.0764 6.29333 25.3253 6.4 25.6098 6.4ZM12.3831 4.90667L14.5164 8.53333C14.6587 8.81778 14.872 8.99556 15.1564 9.06667C15.4409 9.13778 15.7253 9.10222 16.0098 8.96C16.2942 8.81778 16.472 8.60445 16.5431 8.32C16.6142 8.03556 16.5787 7.75111 16.4364 7.46667L14.3031 3.84C14.1609 3.55556 13.9475 3.37778 13.6631 3.30667C13.3787 3.23556 13.0942 3.27111 12.8098 3.41333C12.5253 3.55556 12.3475 3.76889 12.2764 4.05333C12.2053 4.33778 12.2409 4.62222 12.3831 4.90667ZM3.84977 14.2933L7.47643 16.4267C7.76088 16.5689 8.04532 16.6044 8.32977 16.5333C8.61421 16.4622 8.82754 16.2844 8.96977 16C9.11199 15.7156 9.14754 15.4311 9.07643 15.1467C9.00532 14.8622 8.82754 14.6489 8.5431 14.5067L4.91643 12.3733C4.63199 12.2311 4.34754 12.1956 4.0631 12.2667C3.77865 12.3378 3.56532 12.5156 3.4231 12.8C3.28088 13.0844 3.24532 13.3689 3.31643 13.6533C3.38754 13.9378 3.56532 14.1511 3.84977 14.2933ZM6.40977 25.6C6.40977 25.3156 6.3031 25.0667 6.08977 24.8533C5.87643 24.64 5.62754 24.5333 5.3431 24.5333H1.07643C0.791988 24.5333 0.543099 24.64 0.329766 24.8533C0.116432 25.0667 0.00976562 25.3156 0.00976562 25.6C0.00976562 25.8844 0.116432 26.1333 0.329766 26.3467C0.543099 26.56 0.791988 26.6667 1.07643 26.6667H5.3431C5.62754 26.6667 5.87643 26.56 6.08977 26.3467C6.3031 26.1333 6.40977 25.8844 6.40977 25.6ZM7.47643 34.7733L3.84977 36.9067C3.56532 37.0489 3.38754 37.2622 3.31643 37.5467C3.24532 37.8311 3.28088 38.1156 3.4231 38.4C3.56532 38.6844 3.77865 38.8622 4.0631 38.9333C4.34754 39.0044 4.63199 38.9689 4.91643 38.8267L8.5431 36.6933C8.82754 36.5511 9.00532 36.3378 9.07643 36.0533C9.14754 35.7689 9.11199 35.4844 8.96977 35.2C8.82754 34.9156 8.61421 34.7378 8.32977 34.6667C8.04532 34.5956 7.76088 34.6311 7.47643 34.7733ZM47.3698 36.9067L43.7431 34.7733C43.4587 34.6311 43.1742 34.5956 42.8898 34.6667C42.6053 34.7378 42.392 34.9156 42.2498 35.2C42.1075 35.4844 42.072 35.7689 42.1431 36.0533C42.2142 36.3378 42.392 36.5511 42.6764 36.6933L46.3031 38.8267C46.5875 38.9689 46.872 39.0044 47.1564 38.9333C47.4409 38.8622 47.6542 38.6844 47.7964 38.4C47.9387 38.1156 47.9742 37.8311 47.9031 37.5467C47.832 37.2622 47.6542 37.0489 47.3698 36.9067ZM50.1431 24.5333H45.8764C45.592 24.5333 45.3431 24.64 45.1298 24.8533C44.9164 25.0667 44.8098 25.3156 44.8098 25.6C44.8098 25.8844 44.9164 26.1333 45.1298 26.3467C45.3431 26.56 45.592 26.6667 45.8764 26.6667H50.1431C50.4275 26.6667 50.6764 26.56 50.8898 26.3467C51.1031 26.1333 51.2098 25.8844 51.2098 25.6C51.2098 25.3156 51.1031 25.0667 50.8898 24.8533C50.6764 24.64 50.4275 24.5333 50.1431 24.5333ZM43.1031 16.4267C43.3875 16.4267 43.6009 16.4267 43.7431 16.4267L47.3698 14.2933C47.6542 14.1511 47.832 13.9378 47.9031 13.6533C47.9742 13.3689 47.9387 13.0844 47.7964 12.8C47.6542 12.5156 47.4409 12.3378 47.1564 12.2667C46.872 12.1956 46.5875 12.2311 46.3031 12.3733L42.6764 14.5067C42.392 14.6489 42.2142 14.8622 42.1431 15.1467C42.072 15.4311 42.1075 15.7156 42.2498 16C42.392 16.2844 42.6764 16.4267 43.1031 16.4267ZM35.2098 8.96C35.2098 8.96 35.2809 8.99556 35.4231 9.06667C35.5653 9.13778 35.7787 9.13778 36.0631 9.06667C36.3475 8.99556 36.5609 8.81778 36.7031 8.53333L38.8364 4.90667C38.9787 4.62222 39.0142 4.33778 38.9431 4.05333C38.872 3.76889 38.6942 3.55556 38.4098 3.41333C38.1253 3.27111 37.8409 3.23556 37.5564 3.30667C37.272 3.37778 37.0587 3.55556 36.9164 3.84L34.7831 7.46667C34.6409 7.75111 34.6053 8.03556 34.6764 8.32C34.7475 8.60445 34.9253 8.81778 35.2098 8.96ZM27.7431 42.6667C28.0275 42.6667 28.2764 42.56 28.4898 42.3467C28.7031 42.1333 28.8098 41.8844 28.8098 41.6V29.8667H30.9431C32.0809 29.8667 33.0764 29.44 33.9298 28.5867C34.7831 27.7333 35.2098 26.7378 35.2098 25.6C35.2098 24.4622 34.7831 23.4667 33.9298 22.6133C33.0764 21.76 32.0809 21.3333 30.9431 21.3333C29.8053 21.3333 28.8098 21.76 27.9564 22.6133C27.1031 23.4667 26.6764 24.4622 26.6764 25.6V27.7333H24.5431V25.6C24.5431 24.4622 24.1164 23.4667 23.2631 22.6133C22.4098 21.76 21.4142 21.3333 20.2764 21.3333C19.1387 21.3333 18.1431 21.76 17.2898 22.6133C16.4364 23.4667 16.0098 24.4622 16.0098 25.6C16.0098 26.7378 16.4364 27.7333 17.2898 28.5867C18.1431 29.44 19.1387 29.8667 20.2764 29.8667H22.4098V41.6C22.4098 41.8844 22.5164 42.1333 22.7298 42.3467C22.9431 42.56 23.192 42.6667 23.4764 42.6667C23.7609 42.6667 24.0098 42.56 24.2231 42.3467C24.4364 42.1333 24.5431 41.8844 24.5431 41.6V29.8667H26.6764V41.6C26.6764 41.8844 26.7831 42.1333 26.9964 42.3467C27.2098 42.56 27.4587 42.6667 27.7431 42.6667ZM28.8098 25.6C28.8098 25.0311 29.0231 24.5333 29.4498 24.1067C29.8764 23.68 30.3742 23.4667 30.9431 23.4667C31.512 23.4667 32.0098 23.68 32.4364 24.1067C32.8631 24.5333 33.0764 25.0311 33.0764 25.6C33.0764 26.1689 32.8631 26.6667 32.4364 27.0933C32.0098 27.52 31.512 27.7333 30.9431 27.7333H28.8098V25.6ZM22.4098 27.7333H20.2764C19.7075 27.7333 19.2098 27.52 18.7831 27.0933C18.3564 26.6667 18.1431 26.1689 18.1431 25.6C18.1431 25.0311 18.3564 24.5333 18.7831 24.1067C19.2098 23.68 19.7075 23.4667 20.2764 23.4667C20.8453 23.4667 21.3431 23.68 21.7698 24.1067C22.1964 24.5333 22.4098 25.0311 22.4098 25.6V27.7333ZM26.4631 8.53333C23.3342 8.39111 20.4187 9.03111 17.7164 10.4533C15.0142 11.8756 12.8453 13.8311 11.2098 16.32C9.57421 18.8089 8.68532 21.6178 8.5431 24.7467C8.40088 27.4489 8.89865 30.0444 10.0364 32.5333C11.1742 35.0222 12.7387 37.12 14.7298 38.8267C15.5831 39.3956 16.0098 40.1778 16.0098 41.1733V43.7333C16.0098 44.4444 16.2231 45.0489 16.6498 45.5467C17.0764 46.0444 17.5742 46.4356 18.1431 46.72V48C18.1431 48.8533 18.4275 49.5644 18.9964 50.1333C18.4275 50.7022 18.1431 51.4133 18.1431 52.2667C18.1431 53.12 18.4275 53.8311 18.9964 54.4C18.4275 55.1111 18.1431 55.8933 18.1431 56.7467C18.1431 57.6 18.4631 58.3111 19.1031 58.88C19.7431 59.4489 20.4898 59.7333 21.3431 59.7333C21.6275 59.7333 21.8764 59.6267 22.0898 59.4133C22.3031 59.2 22.4098 58.9867 22.4098 58.7733C22.4098 58.56 22.3387 58.3111 22.1964 58.0267L21.7698 57.8133L21.3431 57.6C21.0587 57.6 20.8098 57.4933 20.5964 57.28C20.3831 57.0667 20.2764 56.8178 20.2764 56.5333C20.2764 56.2489 20.3831 56 20.5964 55.7867C20.8098 55.5733 21.0587 55.4667 21.3431 55.4667H25.6098C25.8942 55.4667 26.1431 55.36 26.3564 55.1467C26.5698 54.9333 26.6764 54.6844 26.6764 54.4C26.6764 54.1156 26.5698 53.8667 26.3564 53.6533C26.1431 53.44 25.8942 53.3333 25.6098 53.3333H21.3431C21.0587 53.3333 20.8098 53.2267 20.5964 53.0133C20.3831 52.8 20.2764 52.5511 20.2764 52.2667C20.2764 51.9822 20.3831 51.7333 20.5964 51.52C20.8098 51.3067 21.0587 51.2 21.3431 51.2H25.6098C25.8942 51.2 26.1431 51.0933 26.3564 50.88C26.5698 50.6667 26.6764 50.4178 26.6764 50.1333C26.6764 49.8489 26.5698 49.6 26.3564 49.3867C26.1431 49.1733 25.8942 49.0667 25.6098 49.0667H21.3431C21.0587 49.0667 20.8098 48.96 20.5964 48.7467C20.3831 48.5333 20.2764 48.2844 20.2764 48V46.9333H25.6098C25.8942 46.9333 26.1431 46.8267 26.3564 46.6133C26.5698 46.4 26.6764 46.1511 26.6764 45.8667C26.6764 45.5822 26.5698 45.3333 26.3564 45.12C26.1431 44.9067 25.8942 44.8 25.6098 44.8H19.2098C18.9253 44.8 18.6764 44.6933 18.4631 44.48C18.2498 44.2667 18.1431 44.0178 18.1431 43.7333V41.1733C18.1431 39.4667 17.5031 38.1156 16.2231 37.12C14.0898 35.4133 12.5609 33.3156 11.6364 30.8267C10.712 28.3378 10.4631 25.7778 10.8898 23.1467C11.3164 20.5156 12.3831 18.2044 14.0898 16.2133C15.6542 14.3644 17.5031 12.9422 19.6364 11.9467C21.7698 10.9511 24.0809 10.5244 26.5698 10.6667C29.0587 10.8089 31.3698 11.5556 33.5031 12.9067C35.6364 14.2578 37.3431 16.0356 38.6231 18.24C39.9031 20.4444 40.5431 22.8978 40.5431 25.6C40.5431 27.8756 40.0453 30.0089 39.0498 32C38.0542 33.9911 36.7031 35.6978 34.9964 37.12C33.7164 38.2578 33.0764 39.68 33.0764 41.3867V43.7333C33.0764 44.0178 32.9698 44.2667 32.7564 44.48C32.5431 44.6933 32.2942 44.8 32.0098 44.8H28.8098C28.5253 44.8 28.2764 44.9067 28.0631 45.12C27.8498 45.3333 27.7431 45.5822 27.7431 45.8667C27.7431 46.1511 27.8498 46.4 28.0631 46.6133C28.2764 46.8267 28.5253 46.9333 28.8098 46.9333H30.9431V48C30.9431 48.2844 30.8364 48.5333 30.6231 48.7467C30.4098 48.96 30.1609 49.0667 29.8764 49.0667H28.8098C28.5253 49.0667 28.2764 49.1733 28.0631 49.3867C27.8498 49.6 27.7431 49.8489 27.7431 50.1333C27.7431 50.4178 27.8498 50.6667 28.0631 50.88C28.2764 51.0933 28.5253 51.2 28.8098 51.2H29.8764C30.1609 51.2 30.4098 51.3067 30.6231 51.52C30.8364 51.7333 30.9431 51.9822 30.9431 52.2667C30.9431 52.5511 30.8364 52.8 30.6231 53.0133C30.4098 53.2267 30.1609 53.3333 29.8764 53.3333H28.8098C28.5253 53.3333 28.2764 53.44 28.0631 53.6533C27.8498 53.8667 27.7431 54.1156 27.7431 54.4C27.7431 54.6844 27.8498 54.9333 28.0631 55.1467C28.2764 55.36 28.5253 55.4667 28.8098 55.4667H29.8764C30.1609 55.4667 30.4098 55.5733 30.6231 55.7867C30.8364 56 30.9431 56.2489 30.9431 56.5333C30.9431 56.8178 30.8364 57.0667 30.6231 57.28C30.4098 57.4933 30.1609 57.6 29.8764 57.6H24.5431C24.2587 57.6 24.0098 57.7067 23.7964 57.92C23.5831 58.1333 23.4764 58.3822 23.4764 58.6667C23.4764 58.9511 23.5831 59.2 23.7964 59.4133C24.0098 59.6267 24.2587 59.7333 24.5431 59.7333H28.5964C28.312 60.5867 27.7787 61.1911 26.9964 61.5467C26.2142 61.9022 25.3964 61.9378 24.5431 61.6533C23.9742 61.5111 23.5475 61.2622 23.2631 60.9067C22.9787 60.5511 22.6942 60.3733 22.4098 60.3733C22.1253 60.3733 21.8764 60.48 21.6631 60.6933C21.4498 60.9067 21.3431 61.1556 21.3431 61.44C21.3431 61.7244 21.4142 62.0089 21.5564 62.2933C22.552 63.2889 23.7964 63.8578 25.2898 64C26.7831 64.1422 28.0275 63.7511 29.0231 62.8267C30.0187 61.9022 30.6587 60.8 30.9431 59.52C31.6542 59.2356 32.2231 58.7022 32.6498 57.92C33.0764 57.1378 33.1475 56.3911 32.8631 55.68C32.7209 55.1111 32.5075 54.6844 32.2231 54.4C32.792 53.8311 33.0764 53.12 33.0764 52.2667C33.0764 51.4133 32.792 50.7022 32.2231 50.1333C32.792 49.5644 33.0764 48.8533 33.0764 48V46.72C33.6453 46.4356 34.1431 46.0444 34.5698 45.5467C34.9964 45.0489 35.2098 44.4444 35.2098 43.7333V41.3867C35.2098 40.3911 35.5653 39.5378 36.2764 38.8267C38.4098 37.2622 40.0098 35.3067 41.0764 32.96C42.1431 30.6133 42.6764 28.0889 42.6764 25.3867C42.6764 22.5422 41.9298 19.84 40.4364 17.28C38.9431 14.72 36.9875 12.6578 34.5698 11.0933C32.152 9.52889 29.4498 8.67556 26.4631 8.53333Z" fill="#323844"/>
</g>
<defs>
<clipPath id="clip0_50_159">
<rect width="64.02" height="64" fill="white" transform="matrix(1 0 0 -1 0 64)"/>
</clipPath>
</defs>
</svg>
