<svg width="65" height="64" viewBox="0 0 65 64" fill="none" xmlns="http://www.w3.org/2000/svg">
<g clip-path="url(#clip0_50_152)">
<path d="M43.7431 47.5733C43.8853 48 44.1698 48.2133 44.5964 48.2133H47.1564L46.7298 53.9733C46.5875 54.5422 46.8009 54.9689 47.3698 55.2533H47.7964C48.0809 55.2533 48.2942 55.1111 48.4364 54.8267L56.1164 45.44C56.2587 45.1556 56.3298 44.8711 56.3298 44.5867C56.3298 44.3022 56.2231 44.0889 56.0098 43.9467C55.7964 43.8045 55.5475 43.7333 55.2631 43.7333H52.4898L53.1298 38.1867C53.1298 37.9022 53.0231 37.6533 52.8098 37.44C52.5964 37.2267 52.312 37.0844 51.9564 37.0133C51.6009 36.9422 51.352 37.0489 51.2098 37.3333L43.7431 46.5067C43.4587 46.7911 43.4587 47.1467 43.7431 47.5733ZM50.5698 41.3867L50.3564 44.8C50.3564 45.0844 50.4631 45.3333 50.6764 45.5467C50.8898 45.76 51.1387 45.8667 51.4231 45.8667H53.1298L49.0764 50.7733L49.5031 47.36C49.5031 46.9333 49.3964 46.6133 49.1831 46.4C48.9698 46.1867 48.7209 46.08 48.4364 46.08H46.9431L50.5698 41.3867ZM15.5831 28.16H7.68977C7.40532 28.16 7.15643 28.2311 6.9431 28.3733C6.72977 28.5156 6.6231 28.8 6.6231 29.2267V36.9067C6.6231 37.1911 6.72977 37.44 6.9431 37.6533C7.15643 37.8667 7.40532 37.9733 7.68977 37.9733H15.5831C15.8675 37.9733 16.1164 37.8667 16.3298 37.6533C16.5431 37.44 16.6498 37.1911 16.6498 36.9067V29.2267C16.6498 28.8 16.5431 28.5156 16.3298 28.3733C16.1164 28.2311 15.8675 28.16 15.5831 28.16ZM14.5164 35.84H8.75643V30.2933H14.5164V35.84ZM15.5831 40.32H7.68977C7.40532 40.32 7.15643 40.4267 6.9431 40.64C6.72977 40.8533 6.6231 41.1022 6.6231 41.3867V49.28C6.6231 49.5645 6.72977 49.8133 6.9431 50.0267C7.15643 50.24 7.40532 50.3467 7.68977 50.3467H15.5831C15.8675 50.3467 16.1164 50.24 16.3298 50.0267C16.5431 49.8133 16.6498 49.5645 16.6498 49.28V41.3867C16.6498 41.1022 16.5431 40.8533 16.3298 40.64C16.1164 40.4267 15.8675 40.32 15.5831 40.32ZM14.5164 48.2133H8.75643V42.4533H14.5164V48.2133ZM27.9564 28.16H20.2764C19.8498 28.16 19.5653 28.2311 19.4231 28.3733C19.2809 28.5156 19.2098 28.8 19.2098 29.2267V36.9067C19.2098 37.1911 19.2809 37.44 19.4231 37.6533C19.5653 37.8667 19.8498 37.9733 20.2764 37.9733H27.9564C28.2409 37.9733 28.4898 37.8667 28.7031 37.6533C28.9164 37.44 29.0231 37.1911 29.0231 36.9067V29.2267C29.0231 28.8 28.9164 28.5156 28.7031 28.3733C28.4898 28.2311 28.2409 28.16 27.9564 28.16ZM26.8898 35.84H21.3431V30.2933H26.8898V35.84ZM27.9564 40.32H20.2764C19.8498 40.32 19.5653 40.4267 19.4231 40.64C19.2809 40.8533 19.2098 41.1022 19.2098 41.3867V49.28C19.2098 49.5645 19.2809 49.8133 19.4231 50.0267C19.5653 50.24 19.8498 50.3467 20.2764 50.3467H27.9564C28.2409 50.3467 28.4898 50.24 28.7031 50.0267C28.9164 49.8133 29.0231 49.5645 29.0231 49.28V41.3867C29.0231 41.1022 28.9164 40.8533 28.7031 40.64C28.4898 40.4267 28.2409 40.32 27.9564 40.32ZM26.8898 48.2133H21.3431V42.4533H26.8898V48.2133ZM62.9431 27.3067H61.6631V21.3333C61.6631 21.0489 61.5564 20.8 61.3431 20.5867C61.1298 20.3733 60.8809 20.2667 60.5964 20.2667H57.6098L56.5431 6.82667C56.5431 6.54222 56.4364 6.32889 56.2231 6.18667C56.0098 6.04445 55.7609 5.97334 55.4764 5.97334H46.5164C46.232 5.97334 45.9831 6.04445 45.7698 6.18667C45.5564 6.32889 45.4498 6.54222 45.4498 6.82667L44.8098 14.5067H37.1298L36.4898 6.82667C36.4898 6.54222 36.3831 6.32889 36.1698 6.18667C35.9564 6.04445 35.7075 5.97334 35.4231 5.97334H26.2498C25.9653 5.97334 25.7164 6.04445 25.5031 6.18667C25.2898 6.32889 25.1831 6.54222 25.1831 6.82667L24.5431 14.5067H17.0764L16.4364 6.82667C16.4364 6.54222 16.3298 6.32889 16.1164 6.18667C15.9031 6.04445 15.6542 5.97334 15.3698 5.97334H6.19643C5.91199 5.97334 5.6631 6.04445 5.44977 6.18667C5.23643 6.32889 5.12977 6.54222 5.12977 6.82667L4.0631 20.2667H1.07643C0.791988 20.2667 0.543099 20.3733 0.329766 20.5867C0.116432 20.8 0.00976562 21.0489 0.00976562 21.3333V56.96C0.00976562 57.2445 0.116432 57.4933 0.329766 57.7067C0.543099 57.92 0.791988 58.0267 1.07643 58.0267H62.9431C63.2275 58.0267 63.4764 57.92 63.6898 57.7067C63.9031 57.4933 64.0098 57.2445 64.0098 56.96V28.3733C64.0098 28.0889 63.9031 27.84 63.6898 27.6267C63.4764 27.4133 63.2275 27.3067 62.9431 27.3067ZM61.8764 34.1333H51.6364V29.44H61.8764V34.1333ZM47.1564 12.5867H55.0498L55.6898 20.2667H46.5164L47.1564 12.5867ZM54.6231 8.10667L54.8364 10.4533H47.1564L47.3698 8.10667H54.6231ZM44.5964 16.64L44.3831 20.2667H37.5564L37.3431 16.64H44.5964ZM26.8898 12.5867H34.7831L35.4231 20.2667H26.2498L26.8898 12.5867ZM34.3564 8.10667L34.5698 10.4533H27.1031L27.3164 8.10667H34.3564ZM24.3298 16.64L24.1164 20.2667H17.5031L17.2898 16.64H24.3298ZM14.3031 8.10667L14.5164 10.4533H7.04977L7.2631 8.10667H14.3031ZM6.83643 12.5867H14.7298L15.3698 20.2667H6.19643L6.83643 12.5867ZM36.2764 34.3467C35.992 34.6311 35.8498 34.9156 35.8498 35.2V55.8933H2.1431V22.4H59.5298V27.3067H50.5698C50.2853 27.3067 50.0364 27.4133 49.8231 27.6267C49.6098 27.84 49.5031 28.0889 49.5031 28.3733V34.1333H36.9164C36.632 34.1333 36.4187 34.2044 36.2764 34.3467ZM61.8764 55.8933H37.9831V36.2667H61.8764V55.8933Z" fill="#323844"/>
</g>
<defs>
<clipPath id="clip0_50_152">
<rect width="64.02" height="64" fill="white" transform="matrix(1 0 0 -1 0 64)"/>
</clipPath>
</defs>
</svg>
