<svg width="65" height="64" viewBox="0 0 65 64" fill="none" xmlns="http://www.w3.org/2000/svg">
<g clip-path="url(#clip0_50_112)">
<path d="M61.0133 10.0267V7.89333C61.0133 7.75111 60.9067 7.57333 60.6933 7.36C60.48 7.14666 60.2311 7.04 59.9467 7.04C59.6622 7.04 59.4489 7.14666 59.3067 7.36C59.1644 7.57333 59.0933 7.75111 59.0933 7.89333V10.0267H56.96V7.89333C56.96 7.75111 56.8533 7.57333 56.64 7.36C56.4267 7.14666 56.2133 7.04 56 7.04C55.7867 7.04 55.5733 7.14666 55.36 7.36C55.1467 7.57333 55.04 7.75111 55.04 7.89333V10.0267H52.9067V2.98666C52.9067 2.13333 52.6222 1.42222 52.0533 0.853333C51.4844 0.284443 50.8089 0 50.0267 0C49.2444 0 48.5333 0.284443 47.8933 0.853333C47.2533 1.42222 46.9333 2.13333 46.9333 2.98666V10.0267H45.0133V7.89333C45.0133 7.75111 44.9067 7.57333 44.6933 7.36C44.48 7.14666 44.2311 7.04 43.9467 7.04C43.6622 7.04 43.4489 7.14666 43.3067 7.36C43.1644 7.57333 43.0933 7.75111 43.0933 7.89333V10.0267H40.96V7.89333C40.96 7.75111 40.8533 7.57333 40.64 7.36C40.4267 7.14666 40.2133 7.04 40 7.04C39.7867 7.04 39.5733 7.14666 39.36 7.36C39.1467 7.57333 39.04 7.75111 39.04 7.89333V10.0267C38.1867 10.0267 37.4756 10.3111 36.9067 10.88C36.3378 11.4489 36.0533 12.0889 36.0533 12.8C36.0533 13.5111 36.2311 14.1156 36.5867 14.6133C36.9422 15.1111 37.4044 15.5022 37.9733 15.7867C36.2667 17.3511 34.2756 18.7022 32 19.84C29.7244 18.7022 27.7333 17.3511 26.0267 15.7867C26.5956 15.5022 27.0578 15.1111 27.4133 14.6133C27.7689 14.1156 27.9467 13.5111 27.9467 12.8C27.9467 12.0889 27.6622 11.4489 27.0933 10.88C26.5244 10.3111 25.8133 10.0267 24.96 10.0267V7.89333C24.96 7.75111 24.8533 7.57333 24.64 7.36C24.4267 7.14666 24.2133 7.04 24 7.04C23.7867 7.04 23.5733 7.14666 23.36 7.36C23.1467 7.57333 23.04 7.75111 23.04 7.89333V10.0267H20.9067V7.89333C20.9067 7.75111 20.8356 7.57333 20.6933 7.36C20.5511 7.14666 20.3378 7.04 20.0533 7.04C19.7689 7.04 19.52 7.14666 19.3067 7.36C19.0933 7.57333 18.9867 7.75111 18.9867 7.89333V10.0267H17.0667V2.98666C17.0667 2.13333 16.7467 1.42222 16.1067 0.853333C15.4667 0.284443 14.7556 0 13.9733 0C13.1911 0 12.5156 0.284443 11.9467 0.853333C11.3778 1.42222 11.0933 2.13333 11.0933 2.98666V10.0267H8.96V7.89333C8.96 7.75111 8.85333 7.57333 8.64 7.36C8.42667 7.14666 8.21333 7.04 8 7.04C7.78667 7.04 7.57333 7.14666 7.36 7.36C7.14667 7.57333 7.04 7.75111 7.04 7.89333V10.0267H4.90667V7.89333C4.90667 7.75111 4.83556 7.57333 4.69333 7.36C4.55111 7.14666 4.33778 7.04 4.05333 7.04C3.76889 7.04 3.52 7.14666 3.30667 7.36C3.09333 7.57333 2.98667 7.75111 2.98667 7.89333V10.0267C2.13333 10.0267 1.42222 10.3111 0.853333 10.88C0.284444 11.4489 0 12.16 0 13.0133C0 13.8667 0.284444 14.5778 0.853333 15.1467C1.42222 15.7156 2.13333 16 2.98667 16H3.62667C5.47556 18.2756 7.96444 20.1244 11.0933 21.5467V62.9333C11.0933 63.2178 11.1644 63.4667 11.3067 63.68C11.4489 63.8933 11.6622 64 11.9467 64H16C16.2844 64 16.5333 63.8933 16.7467 63.68C16.96 63.4667 17.0667 63.2178 17.0667 62.9333V23.4667C18.6311 23.7511 20.2667 23.8933 21.9733 23.8933C25.5289 23.8933 28.8711 23.2533 32 21.9733C35.1289 23.3956 38.4711 24.1067 42.0267 24.1067C43.7333 23.9644 45.3689 23.7511 46.9333 23.4667V62.9333C46.9333 63.2178 47.04 63.4667 47.2533 63.68C47.4667 63.8933 47.7156 64 48 64H52.0533C52.3378 64 52.5511 63.8933 52.6933 63.68C52.8356 63.4667 52.9067 63.2178 52.9067 62.9333V21.5467C56.0356 20.1244 58.5244 18.2756 60.3733 16H61.0133C61.8667 16 62.5778 15.7156 63.1467 15.1467C63.7156 14.5778 64 13.8667 64 13.0133C64 12.16 63.7156 11.4489 63.1467 10.88C62.5778 10.3111 61.8667 10.0267 61.0133 10.0267ZM49.0667 2.98666C49.0667 2.70222 49.1378 2.45333 49.28 2.24C49.4222 2.02666 49.6356 1.92 49.92 1.92C50.2044 1.92 50.4533 2.02666 50.6667 2.24C50.88 2.45333 50.9867 2.70222 50.9867 2.98666V10.0267H49.0667V2.98666ZM13.0133 2.98666C13.0133 2.70222 13.12 2.45333 13.3333 2.24C13.5467 2.02666 13.7956 1.92 14.08 1.92C14.3644 1.92 14.5778 2.02666 14.72 2.24C14.8622 2.45333 14.9333 2.70222 14.9333 2.98666V10.0267H13.0133V2.98666ZM1.92 13.0133C1.92 12.7289 2.02667 12.48 2.24 12.2667C2.45333 12.0533 2.70222 11.9467 2.98667 11.9467H24.96C25.2444 11.9467 25.4933 12.0533 25.7067 12.2667C25.92 12.48 26.0267 12.7289 26.0267 13.0133C26.0267 13.2978 25.92 13.5467 25.7067 13.76C25.4933 13.9733 25.2444 14.08 24.96 14.08H2.98667C2.70222 14.08 2.45333 13.9733 2.24 13.76C2.02667 13.5467 1.92 13.2978 1.92 13.0133ZM14.9333 20.9067C14.2222 20.7644 13.5822 20.5511 13.0133 20.2667V16H14.9333V20.9067ZM6.4 16H11.0933V19.2C9.24444 18.3467 7.68 17.28 6.4 16ZM14.9333 62.08H13.0133V22.4L14.9333 23.04V62.08ZM21.9733 21.9733C20.2667 21.9733 18.6311 21.8311 17.0667 21.5467V16H23.4667C25.0311 17.8489 27.0222 19.4844 29.44 20.9067C27.1644 21.6178 24.6756 21.9733 21.9733 21.9733ZM42.0267 21.9733C39.3244 21.9733 36.8356 21.6178 34.56 20.9067C36.9778 19.4844 38.9689 17.8489 40.5333 16H46.9333V21.5467C45.3689 21.8311 43.7333 21.9733 42.0267 21.9733ZM49.0667 62.08V16H50.9867V62.08H49.0667ZM52.9067 19.4133V16H57.6C56.32 17.28 54.7556 18.4178 52.9067 19.4133ZM61.0133 14.08H39.04C38.7556 14.08 38.5067 13.9733 38.2933 13.76C38.08 13.5467 37.9733 13.2978 37.9733 13.0133C37.9733 12.7289 38.08 12.48 38.2933 12.2667C38.5067 12.0533 38.7556 11.9467 39.04 11.9467H61.0133C61.2978 11.9467 61.5467 12.0533 61.76 12.2667C61.9733 12.48 62.08 12.7289 62.08 13.0133C62.08 13.2978 61.9733 13.5467 61.76 13.76C61.5467 13.9733 61.2978 14.08 61.0133 14.08Z" fill="#323844"/>
</g>
<defs>
<clipPath id="clip0_50_112">
<rect width="64.02" height="64" fill="white" transform="matrix(1 0 0 -1 0 64)"/>
</clipPath>
</defs>
</svg>
