<svg width="21" height="21" viewBox="0 0 21 21" fill="none" xmlns="http://www.w3.org/2000/svg">
<g clip-path="url(#clip0_25_399)">
<path d="M15 15.536C15.4167 15.536 15.771 15.39 16.063 15.098C16.355 14.806 16.5007 14.452 16.5 14.036C16.5 13.6193 16.354 13.265 16.062 12.973C15.77 12.681 15.416 12.5353 15 12.536C14.5833 12.536 14.229 12.682 13.937 12.974C13.645 13.266 13.4993 13.62 13.5 14.036C13.5 14.4527 13.646 14.807 13.938 15.099C14.23 15.391 14.584 15.5367 15 15.536ZM15 18.536C15.5167 18.536 15.9917 18.415 16.425 18.173C16.8583 17.931 17.2083 17.6103 17.475 17.211C17.1083 16.9943 16.7167 16.8277 16.3 16.711C15.8833 16.5943 15.45 16.536 15 16.536C14.55 16.536 14.1167 16.5943 13.7 16.711C13.2833 16.8277 12.8917 16.9943 12.525 17.211C12.7917 17.611 13.1417 17.932 13.575 18.174C14.0083 18.416 14.4833 18.5367 15 18.536ZM10 20.536C7.68333 19.9527 5.77067 18.6233 4.262 16.548C2.75333 14.4727 1.99933 12.1687 2 9.63601V3.53601L10 0.536011L18 3.53601V9.21101C17.6833 9.07768 17.3583 8.95668 17.025 8.84801C16.6917 8.73934 16.35 8.66034 16 8.61101V4.93601L10 2.68601L4 4.93601V9.63601C4 10.4193 4.10433 11.2027 4.313 11.986C4.52167 12.7693 4.81333 13.5153 5.188 14.224C5.56267 14.932 6.01667 15.586 6.55 16.186C7.08333 16.786 7.675 17.286 8.325 17.686C8.50833 18.2193 8.75 18.7277 9.05 19.211C9.35 19.6943 9.69167 20.1277 10.075 20.511C10.0583 20.511 10.046 20.5153 10.038 20.524C10.03 20.5327 10.0173 20.5367 10 20.536ZM15 20.536C13.6167 20.536 12.4373 20.0483 11.462 19.073C10.4867 18.0977 9.99933 16.9187 10 15.536C10 14.1527 10.4877 12.9733 11.463 11.998C12.4383 11.0227 13.6173 10.5353 15 10.536C16.3833 10.536 17.5627 11.0237 18.538 11.999C19.5133 12.9743 20.0007 14.1533 20 15.536C20 16.9193 19.5123 18.0987 18.537 19.074C17.5617 20.0493 16.3827 20.5367 15 20.536Z" fill="#323844"/>
</g>
<defs>
<clipPath id="clip0_25_399">
<rect width="20" height="20" fill="white" transform="translate(0.587891 0.852936)"/>
</clipPath>
</defs>
</svg>
