<svg width="33" height="32" viewBox="0 0 33 32" fill="none" xmlns="http://www.w3.org/2000/svg">
<path fill-rule="evenodd" clip-rule="evenodd" d="M0.34961 2.67346C0.34961 1.96441 0.631276 1.28441 1.13265 0.78304C1.63402 0.28167 2.31402 3.56409e-06 3.02306 3.56409e-06H29.6732C30.0246 -0.000570329 30.3727 0.0681678 30.6975 0.202282C31.0222 0.336397 31.3174 0.533254 31.566 0.781583C31.8146 1.02991 32.0117 1.32484 32.1462 1.64947C32.2807 1.97411 32.3498 2.32208 32.3496 2.67346V29.3236C32.35 29.6751 32.2811 30.0232 32.1468 30.348C32.0125 30.6727 31.8155 30.9679 31.5671 31.2164C31.3186 31.465 31.0236 31.6622 30.6989 31.7966C30.3742 31.9311 30.0261 32.0002 29.6747 32H3.02306C2.67186 32 2.32409 31.9308 1.99964 31.7964C1.67519 31.6619 1.3804 31.4649 1.13213 31.2164C0.88386 30.968 0.686965 30.6732 0.552697 30.3486C0.418429 30.0241 0.349419 29.6763 0.34961 29.3251V2.67346ZM13.0158 12.2007H17.3489V14.3767C17.9743 13.1258 19.5743 12 21.9787 12C26.5882 12 27.6805 14.4916 27.6805 19.0633V27.5316H23.0158V20.1047C23.0158 17.5011 22.3903 16.032 20.802 16.032C18.5983 16.032 17.682 17.616 17.682 20.1047V27.5316H13.0158V12.2007ZM5.01579 27.3324H9.68197V12H5.01579V27.3309V27.3324ZM10.3496 6.99928C10.3584 7.3988 10.2873 7.79606 10.1405 8.16773C9.99369 8.53941 9.77412 8.87802 9.49467 9.16369C9.21523 9.44935 8.88154 9.67633 8.51318 9.83128C8.14483 9.98624 7.74923 10.0661 7.34961 10.0661C6.94999 10.0661 6.55439 9.98624 6.18604 9.83128C5.81769 9.67633 5.48399 9.44935 5.20455 9.16369C4.9251 8.87802 4.70553 8.53941 4.55872 8.16773C4.4119 7.79606 4.34081 7.3988 4.34961 6.99928C4.36688 6.21506 4.69053 5.46879 5.25126 4.92027C5.81199 4.37176 6.56521 4.06461 7.34961 4.06461C8.13401 4.06461 8.88723 4.37176 9.44796 4.92027C10.0087 5.46879 10.3323 6.21506 10.3496 6.99928Z" fill="#323844"/>
</svg>
