<svg width="60" height="60" viewBox="0 0 60 60" fill="none" xmlns="http://www.w3.org/2000/svg">
<circle cx="30" cy="30" r="30" fill="#323844"/>
<path d="M29.9995 18.75C28.412 18.75 26.9995 19.75 26.4745 21.25H18.7495V23.75H21.187L17.4995 32.5C16.912 35 18.7495 36.25 21.8745 36.25C24.9995 36.25 26.9495 35 26.2495 32.5L22.562 23.75H26.462C26.8745 24.8125 27.687 25.625 28.7495 26.0375V40H17.4995V42.5H42.4995V40H31.2495V26.025C32.312 25.625 33.1245 24.8125 33.5245 23.75H37.437L33.7495 32.5C33.162 35 34.9995 36.25 38.1245 36.25C41.2495 36.25 43.1995 35 42.4995 32.5L38.812 23.75H41.2495V21.25H33.537C32.9995 19.75 31.587 18.75 29.9995 18.75ZM29.9995 21.25C30.331 21.25 30.649 21.3817 30.8834 21.6161C31.1178 21.8505 31.2495 22.1685 31.2495 22.5C31.2495 22.8315 31.1178 23.1495 30.8834 23.3839C30.649 23.6183 30.331 23.75 29.9995 23.75C29.668 23.75 29.35 23.6183 29.1156 23.3839C28.8812 23.1495 28.7495 22.8315 28.7495 22.5C28.7495 22.1685 28.8812 21.8505 29.1156 21.6161C29.35 21.3817 29.668 21.25 29.9995 21.25ZM21.8745 27.8125L23.7495 32.5H19.9995L21.8745 27.8125ZM38.1245 27.8125L39.9995 32.5H36.2495L38.1245 27.8125Z" fill="#FEFEFE"/>
</svg>
