<svg width="61" height="60" viewBox="0 0 61 60" fill="none" xmlns="http://www.w3.org/2000/svg">
<circle cx="30.5" cy="30" r="30" fill="#323844"/>
<path d="M30.5 17.5C28.8585 17.5 27.233 17.8233 25.7165 18.4515C24.1999 19.0797 22.8219 20.0004 21.6612 21.1612C19.317 23.5054 18 26.6848 18 30C18 33.3152 19.317 36.4946 21.6612 38.8388C22.8219 39.9996 24.1999 40.9203 25.7165 41.5485C27.233 42.1767 28.8585 42.5 30.5 42.5C33.8152 42.5 36.9946 41.183 39.3388 38.8388C41.683 36.4946 43 33.3152 43 30C43 28.3585 42.6767 26.733 42.0485 25.2165C41.4203 23.6999 40.4996 22.3219 39.3388 21.1612C38.1781 20.0004 36.8001 19.0797 35.2835 18.4515C33.767 17.8233 32.1415 17.5 30.5 17.5ZM30.5 25.4875C32.4625 26.75 34.775 27.5 37.275 27.5C38.25 27.5 39.1875 27.3875 40.0875 27.175C40.35 28.0625 40.5 29.0125 40.5 30C40.5 35.5125 36.0125 40 30.5 40C26.75 40 23.4875 37.925 21.75 34.8625L23.9375 32.5V31.25C23.9375 30.8356 24.1021 30.4382 24.3951 30.1451C24.6882 29.8521 25.0856 29.6875 25.5 29.6875C25.9144 29.6875 26.3118 29.8521 26.6049 30.1451C26.8979 30.4382 27.0625 30.8356 27.0625 31.25V32.5H30.5M35.5 29.6875C35.0856 29.6875 34.6882 29.8521 34.3951 30.1451C34.1021 30.4382 33.9375 30.8356 33.9375 31.25C33.9375 31.6644 34.1021 32.0618 34.3951 32.3549C34.6882 32.6479 35.0856 32.8125 35.5 32.8125C35.9144 32.8125 36.3118 32.6479 36.6049 32.3549C36.8979 32.0618 37.0625 31.6644 37.0625 31.25C37.0625 30.8356 36.8979 30.4382 36.6049 30.1451C36.3118 29.8521 35.9144 29.6875 35.5 29.6875Z" fill="#FEFEFE"/>
</svg>
