<svg width="72" height="72" viewBox="0 0 72 72" fill="none" xmlns="http://www.w3.org/2000/svg">
<path d="M49.1964 53.52C49.3563 54 49.6762 54.24 50.156 54.24H53.0351L52.5553 60.72C52.3954 61.36 52.6353 61.84 53.2751 62.16H53.7549C54.0748 62.16 54.3148 62 54.4747 61.68L63.112 51.12C63.2719 50.8 63.3519 50.48 63.3519 50.16C63.3519 49.84 63.232 49.6 62.992 49.44C62.7521 49.28 62.4722 49.2 62.1523 49.2H59.0333L59.7531 42.96C59.7531 42.64 59.6331 42.36 59.3932 42.12C59.1532 41.88 58.8333 41.72 58.4335 41.64C58.0336 41.56 57.7537 41.68 57.5937 42L49.1964 52.32C48.8764 52.64 48.8764 53.04 49.1964 53.52ZM56.874 46.56L56.634 50.4C56.634 50.72 56.754 51 56.9939 51.24C57.2338 51.48 57.5138 51.6 57.8336 51.6H59.7531L55.1945 57.12L55.6743 53.28C55.6743 52.8 55.5544 52.44 55.3144 52.2C55.0745 51.96 54.7946 51.84 54.4747 51.84H52.7952L56.874 46.56ZM17.5262 31.68H8.64902C8.32912 31.68 8.04921 31.76 7.80928 31.92C7.56936 32.08 7.44939 32.4 7.44939 32.88V41.52C7.44939 41.84 7.56936 42.12 7.80928 42.36C8.04921 42.6 8.32912 42.72 8.64902 42.72H17.5262C17.8461 42.72 18.1261 42.6 18.366 42.36C18.6059 42.12 18.7259 41.84 18.7259 41.52V32.88C18.7259 32.4 18.6059 32.08 18.366 31.92C18.1261 31.76 17.8461 31.68 17.5262 31.68ZM16.3266 40.32H9.84865V34.08H16.3266V40.32ZM17.5262 45.36H8.64902C8.32912 45.36 8.04921 45.48 7.80928 45.72C7.56936 45.96 7.44939 46.24 7.44939 46.56V55.44C7.44939 55.76 7.56936 56.04 7.80928 56.28C8.04921 56.52 8.32912 56.64 8.64902 56.64H17.5262C17.8461 56.64 18.1261 56.52 18.366 56.28C18.6059 56.04 18.7259 55.76 18.7259 55.44V46.56C18.7259 46.24 18.6059 45.96 18.366 45.72C18.1261 45.48 17.8461 45.36 17.5262 45.36ZM16.3266 54.24H9.84865V47.76H16.3266V54.24ZM31.4419 31.68H22.8046C22.3247 31.68 22.0048 31.76 21.8449 31.92C21.6849 32.08 21.605 32.4 21.605 32.88V41.52C21.605 41.84 21.6849 42.12 21.8449 42.36C22.0048 42.6 22.3247 42.72 22.8046 42.72H31.4419C31.7618 42.72 32.0417 42.6 32.2816 42.36C32.5216 42.12 32.6415 41.84 32.6415 41.52V32.88C32.6415 32.4 32.5216 32.08 32.2816 31.92C32.0417 31.76 31.7618 31.68 31.4419 31.68ZM30.2423 40.32H24.0042V34.08H30.2423V40.32ZM31.4419 45.36H22.8046C22.3247 45.36 22.0048 45.48 21.8449 45.72C21.6849 45.96 21.605 46.24 21.605 46.56V55.44C21.605 55.76 21.6849 56.04 21.8449 56.28C22.0048 56.52 22.3247 56.64 22.8046 56.64H31.4419C31.7618 56.64 32.0417 56.52 32.2816 56.28C32.5216 56.04 32.6415 55.76 32.6415 55.44V46.56C32.6415 46.24 32.5216 45.96 32.2816 45.72C32.0417 45.48 31.7618 45.36 31.4419 45.36ZM30.2423 54.24H24.0042V47.76H30.2423V54.24ZM70.7896 30.72H69.3501V24C69.3501 23.68 69.2301 23.4 68.9902 23.16C68.7502 22.92 68.4703 22.8 68.1504 22.8H64.7915L63.5919 7.68003C63.5919 7.36003 63.4719 7.12003 63.232 6.96003C62.992 6.80003 62.7121 6.72003 62.3922 6.72003H52.3154C51.9955 6.72003 51.7156 6.80003 51.4756 6.96003C51.2357 7.12003 51.1157 7.36003 51.1157 7.68003L50.396 16.32H41.7587L41.0389 7.68003C41.0389 7.36003 40.9189 7.12003 40.679 6.96003C40.4391 6.80003 40.1592 6.72003 39.8393 6.72003H29.5225C29.2026 6.72003 28.9227 6.80003 28.6828 6.96003C28.4428 7.12003 28.3229 7.36003 28.3229 7.68003L27.6031 16.32H19.2057L18.4859 7.68003C18.4859 7.36003 18.366 7.12003 18.1261 6.96003C17.8861 6.80003 17.6062 6.72003 17.2863 6.72003H6.96954C6.64964 6.72003 6.36973 6.80003 6.12981 6.96003C5.88988 7.12003 5.76992 7.36003 5.76992 7.68003L4.57029 22.8H1.21134C0.891444 22.8 0.611531 22.92 0.371606 23.16C0.131681 23.4 0.0117188 23.68 0.0117188 24V64.08C0.0117188 64.4 0.131681 64.68 0.371606 64.92C0.611531 65.16 0.891444 65.28 1.21134 65.28H70.7896C71.1095 65.28 71.3894 65.16 71.6293 64.92C71.8693 64.68 71.9892 64.4 71.9892 64.08V31.92C71.9892 31.6 71.8693 31.32 71.6293 31.08C71.3894 30.84 71.1095 30.72 70.7896 30.72ZM69.59 38.4H58.0736V33.12H69.59V38.4ZM53.0351 14.16H61.9124L62.6322 22.8H52.3154L53.0351 14.16ZM61.4325 9.12003L61.6725 11.76H53.0351L53.2751 9.12003H61.4325ZM50.156 18.72L49.9161 22.8H42.2385L41.9986 18.72H50.156ZM30.2423 14.16H39.1195L39.8393 22.8H29.5225L30.2423 14.16ZM38.6396 9.12003L38.8796 11.76H30.4822L30.7221 9.12003H38.6396ZM27.3632 18.72L27.1232 22.8H19.6856L19.4456 18.72H27.3632ZM16.0867 9.12003L16.3266 11.76H7.92924L8.16917 9.12003H16.0867ZM7.68932 14.16H16.5665L17.2863 22.8H6.96954L7.68932 14.16ZM40.799 38.64C40.4791 38.96 40.3191 39.28 40.3191 39.6V62.88H2.41097V25.2H66.9508V30.72H56.874C56.5541 30.72 56.2741 30.84 56.0342 31.08C55.7943 31.32 55.6743 31.6 55.6743 31.92V38.4H41.5187C41.1988 38.4 40.9589 38.48 40.799 38.64ZM69.59 62.88H42.7184V40.8H69.59V62.88Z" fill="#323844"/>
</svg>
