<svg width="72" height="72" viewBox="0 0 72 72" fill="none" xmlns="http://www.w3.org/2000/svg">
<path d="M51.1157 57.36C50.9558 57.36 50.7559 57.28 50.5159 57.12C50.276 56.96 50.1161 56.72 50.0361 56.4C49.9561 56.08 49.9961 55.84 50.156 55.68L50.8758 54.96H50.6359C50.4759 54.96 50.316 54.8 50.156 54.48C49.9961 54.16 49.9161 53.92 49.9161 53.76L50.8758 49.44H47.5169C47.197 49.44 46.9571 49.2 46.7971 48.72H46.5572C46.2373 48.56 45.9973 48.36 45.8374 48.12C45.6774 47.88 45.6774 47.68 45.8374 47.52L49.6762 36.24C49.6762 35.92 49.9961 35.76 50.6359 35.76H56.874C57.1939 35.76 57.4338 35.88 57.5937 36.12C57.7537 36.36 57.8336 36.64 57.8336 36.96L55.4344 42.96H60.7127C61.0326 42.96 61.3126 43.12 61.5525 43.44C61.7924 43.76 61.7524 44.08 61.4325 44.4L51.8355 56.88C51.6756 57.2 51.4356 57.36 51.1157 57.36ZM47.9967 47.28H52.3154C52.6353 47.28 52.9152 47.44 53.1551 47.76C53.395 48.08 53.435 48.4 53.2751 48.72L52.3154 53.28L58.5534 44.88H53.9949C53.6749 44.88 53.435 44.72 53.2751 44.4C53.1151 44.08 53.0351 43.76 53.0351 43.44L55.4344 37.68H51.3557L47.9967 47.28ZM56.1542 65.52H51.1157C50.7958 65.52 50.5559 65.44 50.396 65.28C50.236 65.12 50.156 64.88 50.156 64.56C50.156 64.24 50.236 63.96 50.396 63.72C50.5559 63.48 50.7958 63.36 51.1157 63.36H55.1945V61.44C55.1945 61.28 55.2744 61.08 55.4344 60.84C55.5943 60.6 55.8343 60.48 56.1542 60.48C58.0736 60.16 59.7531 59.44 61.1926 58.32C61.6725 58 62.0723 58.08 62.3922 58.56L63.8318 60L66.231 57.6L64.7915 56.16C64.4716 55.68 64.4716 55.2 64.7915 54.72C65.7512 53.44 66.471 51.84 66.9508 49.92C66.9508 49.6 67.0308 49.36 67.1907 49.2C67.3507 49.04 67.5906 48.96 67.9105 48.96H69.8299V45.6H67.9105C67.5906 45.6 67.3507 45.52 67.1907 45.36C67.0308 45.2 66.9508 44.96 66.9508 44.64C66.6309 42.88 65.9111 41.2 64.7915 39.6C64.6315 39.44 64.5516 39.24 64.5516 39C64.5516 38.76 64.6315 38.56 64.7915 38.4L66.231 36.96L63.8318 34.56L62.3922 36C62.0723 36.32 61.6725 36.32 61.1926 36C59.5931 34.88 57.9136 34.16 56.1542 33.84C55.6743 33.68 55.4344 33.36 55.4344 32.88V30.72H51.8355V32.88C51.8355 33.52 51.5956 33.84 51.1157 33.84C49.3563 34.16 47.5968 34.88 45.8374 36C45.5175 36.16 45.1176 36.08 44.6378 35.76L43.4381 34.32L40.799 36.72L42.2385 38.16C42.7184 38.48 42.7983 38.88 42.4784 39.36C41.3588 41.12 40.639 42.8 40.3191 44.4C40.1592 45.04 39.8393 45.36 39.3594 45.36H37.2001C36.8802 45.36 36.6403 45.24 36.4803 45C36.3204 44.76 36.2404 44.52 36.2404 44.28C36.2404 44.04 36.3204 43.8 36.4803 43.56C36.6403 43.32 36.8802 43.2 37.2001 43.2H38.3997C38.7196 41.92 39.3594 40.48 40.3191 38.88L38.8796 37.44C38.5597 37.28 38.3997 37.04 38.3997 36.72C38.3997 36.4 38.5597 36.16 38.8796 36L42.7184 31.92C42.8783 31.76 43.0783 31.68 43.3182 31.68C43.5581 31.68 43.838 31.76 44.1579 31.92L45.5975 33.6C47.037 32.8 48.4766 32.24 49.9161 31.92V29.76C49.9161 29.44 50.0361 29.16 50.276 28.92C50.5159 28.68 50.7958 28.56 51.1157 28.56H56.634C56.794 28.56 56.9939 28.68 57.2338 28.92C57.4738 29.16 57.5937 29.44 57.5937 29.76V31.92C59.0333 32.24 60.4728 32.8 61.9124 33.6L63.3519 32.16C63.5119 32 63.7518 31.92 64.0717 31.92C64.3916 31.92 64.6315 32 64.7915 32.16L68.6303 36C68.7902 36.32 68.8702 36.6 68.8702 36.84C68.8702 37.08 68.7902 37.28 68.6303 37.44L66.9508 39.12C67.7505 40.24 68.3904 41.6 68.8702 43.2H71.0295C71.1895 43.2 71.3894 43.32 71.6293 43.56C71.8693 43.8 71.9892 44.08 71.9892 44.4V49.92C71.9892 50.24 71.8693 50.48 71.6293 50.64C71.3894 50.8 71.1895 50.88 71.0295 50.88H68.6303C68.3104 52.32 67.7505 53.76 66.9508 55.2L68.3904 56.64C68.5503 56.96 68.6303 57.24 68.6303 57.48C68.6303 57.72 68.5503 57.92 68.3904 58.08L64.5516 62.16C64.3916 62.32 64.1517 62.4 63.8318 62.4C63.5119 62.4 63.2719 62.32 63.112 62.16L61.4325 60.48C60.1529 61.28 58.7134 61.84 57.1139 62.16V64.32C57.2738 64.64 57.2338 64.92 56.9939 65.16C56.754 65.4 56.4741 65.52 56.1542 65.52ZM31.4419 66.72C30.8021 66.72 30.4822 66.4 30.4822 65.76L27.843 49.68C27.843 49.04 28.1629 48.64 28.8027 48.48C29.1226 48.48 29.4025 48.56 29.6425 48.72C29.8824 48.88 30.0023 49.12 30.0023 49.44L32.4016 65.52C32.4016 66.16 32.0817 66.56 31.4419 66.72ZM20.8852 66.72C20.7252 66.72 20.5653 66.72 20.4053 66.72C20.2454 66.72 20.0854 66.6 19.9255 66.36C19.7655 66.12 19.6856 65.84 19.6856 65.52L22.3247 49.44C22.3247 49.12 22.4447 48.88 22.6846 48.72C22.9246 48.56 23.1645 48.48 23.4044 48.48C23.6443 48.48 23.8443 48.6 24.0042 48.84C24.1642 49.08 24.2441 49.36 24.2441 49.68L21.8449 65.76C21.8449 66.08 21.7249 66.32 21.485 66.48C21.2451 66.64 21.0451 66.72 20.8852 66.72ZM21.8449 48.96C21.525 48.96 21.2851 48.88 21.1251 48.72L16.3266 44.88C16.1667 44.72 16.0867 44.48 16.0867 44.16C16.0867 43.84 16.1667 43.56 16.3266 43.32C16.4866 43.08 16.6865 42.96 16.9264 42.96C17.1664 42.96 17.4463 43.04 17.7662 43.2L21.8449 46.8L25.6837 44.4C25.8436 44.24 26.0836 44.16 26.4035 44.16C26.7234 44.16 26.9233 44.28 27.0033 44.52C27.0833 44.76 27.1232 45.04 27.1232 45.36C27.1232 45.68 26.9633 45.92 26.6434 46.08L22.3247 48.72C22.1648 48.88 22.0048 48.96 21.8449 48.96ZM51.1157 66.72H0.971419C0.811469 66.72 0.611531 66.6 0.371606 66.36C0.131681 66.12 0.0117188 65.84 0.0117188 65.52V54.96C0.331619 50.64 2.81084 47.44 7.44939 45.36C10.1685 44.08 13.2076 43.28 16.5665 42.96L19.2057 39.6C19.3657 39.44 19.6056 39.36 19.9255 39.36C20.2454 39.36 20.4853 39.44 20.6453 39.6L25.9236 43.92L31.4419 39.6C31.6018 39.44 31.8418 39.36 32.1617 39.36C32.4816 39.36 32.7215 39.44 32.8814 39.6L35.7605 42.96C39.1195 43.28 42.0786 44.08 44.6378 45.36C49.4363 47.6 51.9155 50.88 52.0755 55.2V65.52C52.0755 65.84 51.9955 66.12 51.8355 66.36C51.6756 66.6 51.4356 66.72 51.1157 66.72ZM2.17104 64.56H50.156V55.44C49.9961 52.56 48.6365 50.24 46.0773 48.48C44.1579 47.2 41.7587 46.24 38.8796 45.6C37.2801 45.28 36.0005 45.12 35.0408 45.12C34.8808 45.12 34.6409 44.96 34.321 44.64L31.9217 41.76L26.6434 45.84C26.4834 46 26.2835 46.08 26.0436 46.08C25.8037 46.08 25.6037 46 25.4438 45.84L20.1654 41.76L17.7662 44.64C17.7662 44.8 17.5262 44.96 17.0464 45.12C16.2466 45.12 14.967 45.28 13.2076 45.6C10.4884 46.24 8.16917 47.2 6.24977 48.48C3.69057 50.24 2.33099 52.48 2.17104 55.2V64.56ZM26.1635 39.84C26.1635 39.84 26.0836 39.84 25.9236 39.84C22.5647 39.84 19.8455 38.88 17.7662 36.96C16.1667 35.36 15.3669 33.44 15.3669 31.2H14.1673C13.3675 31.2 12.7677 30.76 12.3679 29.88C11.968 29 11.768 27.92 11.768 26.64C11.768 25.36 11.968 24.28 12.3679 23.4C12.7677 22.52 13.3675 22.08 14.1673 22.08H15.3669V21.6C15.3669 20.48 15.6068 19.2 16.0867 17.76C16.5665 16.32 17.2463 15.24 18.1261 14.52C19.0058 13.8 20.0854 13.68 21.365 14.16C22.9645 14.64 24.844 15.12 27.0033 15.6C29.1626 16.08 30.4022 16.24 30.7221 16.08C32.3216 15.6 33.6012 15.76 34.5609 16.56C36.0005 17.52 36.7202 19.2 36.7202 21.6V22.08H37.9199C38.7196 22.08 39.3194 22.52 39.7193 23.4C40.1192 24.28 40.3191 25.36 40.3191 26.64C40.3191 27.92 40.1192 29 39.7193 29.88C39.3194 30.76 38.7196 31.2 37.9199 31.2H36.7202C36.7202 33.44 35.9205 35.36 34.321 36.96C33.5212 37.92 32.4016 38.64 30.962 39.12C29.5225 39.6 27.923 39.84 26.1635 39.84ZM26.1635 37.92C27.6031 37.92 28.9227 37.68 30.1223 37.2C31.3219 36.72 32.3216 36.08 33.1214 35.28C34.241 34.32 34.8008 32.96 34.8008 31.2V30.24C34.8008 29.92 34.9208 29.68 35.1607 29.52C35.4007 29.36 35.6806 29.28 36.0005 29.28H37.9199C38.2398 28.64 38.3997 27.76 38.3997 26.64C38.3997 25.52 38.2398 24.64 37.9199 24H36.0005C35.6806 24 35.4007 23.92 35.1607 23.76C34.9208 23.6 34.8008 23.36 34.8008 23.04V21.36C34.8008 20.72 34.6809 20.08 34.441 19.44C34.201 18.8 33.8811 18.32 33.4813 18C33.0814 17.68 32.4416 17.64 31.5619 17.88C30.6821 18.12 28.6428 17.92 25.4438 17.28C23.5244 16.8 21.9249 16.32 20.6453 15.84C20.3254 15.68 19.8855 15.8 19.3257 16.2C18.7659 16.6 18.326 17.32 18.0061 18.36C17.6862 19.4 17.5262 20.4 17.5262 21.36V23.04C17.5262 23.36 17.4063 23.6 17.1664 23.76C16.9264 23.92 16.6465 24 16.3266 24H14.4072C14.0873 24.64 13.9274 25.56 13.9274 26.76C13.9274 27.96 14.0873 28.8 14.4072 29.28H16.3266C16.6465 29.28 16.9264 29.36 17.1664 29.52C17.4063 29.68 17.5262 29.92 17.5262 30.24V31.2C17.5262 32.8 18.0861 34.16 19.2057 35.28C20.0055 36.08 21.0052 36.72 22.2048 37.2C23.4044 37.68 24.724 37.92 26.1635 37.92ZM13.2076 25.2C12.7277 25.2 12.4078 24.88 12.2479 24.24C12.0879 23.6 11.928 22.72 11.768 21.6C11.6081 19.52 11.6881 17.76 12.008 16.32C12.6478 12.8 14.4072 10.08 17.2863 8.15997C19.8455 6.39997 22.8046 5.43997 26.1635 5.27997C26.4834 5.27997 26.7234 5.39997 26.8833 5.63997C27.0433 5.87997 27.1232 6.11997 27.1232 6.35997C27.1232 6.59997 27.0033 6.83997 26.7634 7.07997C26.5234 7.31997 26.3235 7.43997 26.1635 7.43997C23.2844 7.43997 20.6453 8.23997 18.246 9.83997C15.8468 11.44 14.4072 13.68 13.9274 16.56C13.7674 18 13.7674 19.56 13.9274 21.24C14.0873 22.92 14.2073 23.84 14.2873 24C14.3672 24.16 14.3272 24.36 14.1673 24.6C14.0073 24.84 13.7674 24.96 13.4475 24.96L13.2076 25.2ZM20.1654 41.28C19.8455 41.28 19.5656 41.16 19.3257 40.92C19.0858 40.68 18.9658 40.4 18.9658 40.08V37.44C18.9658 37.12 19.0858 36.84 19.3257 36.6C19.5656 36.36 19.8455 36.24 20.1654 36.24C20.4853 36.24 20.7252 36.36 20.8852 36.6C21.0451 36.84 21.1251 37.12 21.1251 37.44V40.08C21.1251 40.4 21.0052 40.68 20.7652 40.92C20.5253 41.16 20.3254 41.28 20.1654 41.28ZM30.4822 48.96C30.1623 48.96 29.9224 48.88 29.7624 48.72L25.4438 46.08C25.2838 45.92 25.1639 45.68 25.0839 45.36C25.0039 45.04 25.0439 44.76 25.2038 44.52C25.3638 44.28 25.5637 44.16 25.8037 44.16C26.0436 44.16 26.3235 44.24 26.6434 44.4L30.2423 46.8L34.5609 43.2C34.7209 43.04 34.9208 42.96 35.1607 42.96C35.4007 42.96 35.6406 43.08 35.8805 43.32C36.1204 43.56 36.2404 43.84 36.2404 44.16C36.2404 44.48 36.0804 44.72 35.7605 44.88L31.202 48.72C31.042 48.88 30.8021 48.96 30.4822 48.96ZM38.8796 25.2C38.8796 25.2 38.7996 25.16 38.6396 25.08C38.4797 25 38.3197 24.84 38.1598 24.6C37.9998 24.36 37.9199 24.08 37.9199 23.76C38.5597 21.04 38.6396 18.72 38.1598 16.8C37.6799 13.76 36.1604 11.44 33.6012 9.83997C31.5219 8.23997 29.0426 7.43997 26.1635 7.43997C25.8436 7.43997 25.6037 7.31997 25.4438 7.07997C25.2838 6.83997 25.2038 6.59997 25.2038 6.35997C25.2038 6.11997 25.2838 5.87997 25.4438 5.63997C25.6037 5.39997 25.8436 5.27997 26.1635 5.27997C29.5225 5.43997 32.4816 6.39997 35.0408 8.15997C37.9199 10.08 39.6793 12.8 40.3191 16.32C40.4791 17.92 40.4791 19.68 40.3191 21.6C40.3191 22.88 40.2391 23.76 40.0792 24.24C39.9192 24.56 39.7593 24.8 39.5993 24.96C39.4394 25.12 39.1995 25.2 38.8796 25.2ZM32.1617 41.28C31.8418 41.28 31.6018 41.16 31.4419 40.92C31.2819 40.68 31.202 40.4 31.202 40.08V37.44C31.202 37.12 31.2819 36.84 31.4419 36.6C31.6018 36.36 31.8418 36.24 32.1617 36.24C32.4816 36.24 32.7215 36.36 32.8814 36.6C33.0414 36.84 33.1214 37.12 33.1214 37.44V40.08C33.1214 40.4 33.0414 40.68 32.8814 40.92C32.7215 41.16 32.4816 41.28 32.1617 41.28ZM26.1635 53.28C25.8436 53.28 25.6037 53.2 25.4438 53.04L21.1251 48.72C20.9652 48.56 20.8852 48.32 20.8852 48C20.8852 47.68 20.9652 47.44 21.1251 47.28C21.2851 47.12 21.525 47.04 21.8449 47.04C22.1648 47.04 22.4047 47.12 22.5647 47.28L26.1635 50.88L29.7624 47.28C29.9224 47.12 30.1623 47.04 30.4822 47.04C30.8021 47.04 31.082 47.12 31.3219 47.28C31.5619 47.44 31.6818 47.68 31.6818 48C31.6818 48.32 31.5219 48.56 31.202 48.72L26.8833 53.04C26.5634 53.2 26.3235 53.28 26.1635 53.28Z" fill="#323844"/>
</svg>
