<svg width="72" height="72" viewBox="0 0 72 72" fill="none" xmlns="http://www.w3.org/2000/svg">
<g clip-path="url(#clip0_297_312)">
<path d="M70.7896 0H64.0717C63.7518 0 63.4719 0.120003 63.232 0.360001C62.992 0.599998 62.952 0.880005 63.112 1.2V5.52H58.5534V4.56001C58.5534 4.24 58.4335 3.96 58.1935 3.72C57.9536 3.48 57.6737 3.36 57.3538 3.36C57.0339 3.36 56.754 3.48 56.5141 3.72C56.2741 3.96 56.1542 4.24 56.1542 4.56001V5.52H53.9949V4.56001C53.9949 4.24 53.8749 3.96 53.635 3.72C53.395 3.48 53.1151 3.36 52.7952 3.36C52.4753 3.36 52.2354 3.48 52.0755 3.72C51.9155 3.96 51.8355 4.24 51.8355 4.56001V5.52H50.6359C49.9961 5.52 49.5962 5.92 49.4363 6.72C49.2763 7.52 48.8764 8.64 48.2366 10.08C46.6371 12.8 44.4778 15.44 41.7587 18C37.7599 21.52 32.7215 24.56 26.6434 27.12L0.491569 44.16C0.171669 44.32 0.0117188 44.56 0.0117188 44.88V50.64C0.0117188 51.12 0.211656 51.44 0.611531 51.6C1.01141 51.76 1.37129 51.76 1.69119 51.6L4.57029 49.92V70.8C4.57029 71.12 4.65027 71.4 4.81022 71.64C4.97017 71.88 5.21009 72 5.52999 72H48.4766C48.7965 72 49.0364 71.88 49.1964 71.64C49.3563 71.4 49.4363 71.12 49.4363 70.8V49.92L52.3154 51.6C52.6353 51.76 52.9952 51.72 53.395 51.48C53.7949 51.24 53.9949 50.96 53.9949 50.64V44.88C53.9949 44.56 53.8349 44.32 53.515 44.16L30.2423 29.04C35.0408 28.4 39.1995 27.2 42.7184 25.44C45.4375 24.16 47.6768 22.64 49.4363 20.88V22.56C49.4363 22.88 49.5562 23.12 49.7962 23.28C50.0361 23.44 50.316 23.52 50.6359 23.52H63.112V70.8C63.112 71.12 63.192 71.4 63.3519 71.64C63.5119 71.88 63.7518 72 64.0717 72H70.7896C71.1095 72 71.3894 71.88 71.6293 71.64C71.8693 71.4 71.9892 71.12 71.9892 70.8V1.2C71.9892 0.880005 71.8693 0.599998 71.6293 0.360001C71.3894 0.120003 71.1095 0 70.7896 0ZM69.8299 12.48V16.8H65.2713V12.48H69.8299ZM65.2713 2.16H69.8299V5.52H65.2713V2.16ZM51.8355 7.92H69.8299V10.08H51.8355V7.92ZM32.6415 69.84H21.365V55.2H32.6415V69.84ZM34.8008 69.84V54C34.8008 53.68 34.7209 53.4 34.5609 53.16C34.401 52.92 34.161 52.8 33.8411 52.8H20.1654C19.8455 52.8 19.6056 52.92 19.4456 53.16C19.2857 53.4 19.2057 53.68 19.2057 54V69.84H6.72962V48.48L27.1232 36.24L47.277 48.48V69.84H34.8008ZM51.8355 48.72L48.9564 47.04L27.6031 33.84C27.2832 33.68 26.8833 33.68 26.4035 33.84L2.17104 48.72V45.6L27.1232 29.52L51.8355 45.6V48.72ZM33.8411 26.16C41.1988 22 46.4772 17.2 49.6762 11.76C49.8362 12.24 50.156 12.48 50.6359 12.48H63.112V16.8H58.5534V15.84C58.5534 15.52 58.4335 15.24 58.1935 15C57.9536 14.76 57.6737 14.64 57.3538 14.64C57.0339 14.64 56.754 14.76 56.5141 15C56.2741 15.24 56.1542 15.52 56.1542 15.84V16.8H53.9949V15.84C53.9949 15.52 53.8749 15.24 53.635 15C53.395 14.76 53.1151 14.64 52.7952 14.64C52.4753 14.64 52.2354 14.76 52.0755 15C51.9155 15.24 51.8355 15.52 51.8355 15.84V16.8H50.6359C50.316 16.8 49.9961 17.04 49.6762 17.52C49.0364 18.48 47.8368 19.6 46.0773 20.88C42.8783 23.28 38.7996 25.04 33.8411 26.16ZM51.8355 19.2H69.8299V21.36H51.8355V19.2ZM65.2713 69.84V23.52H69.8299V69.84H65.2713ZM27.1232 40.56C25.8436 40.56 24.764 41 23.8843 41.88C23.0045 42.76 22.5647 43.8 22.5647 45C22.5647 46.2 23.0045 47.24 23.8843 48.12C24.764 49 25.8037 49.44 27.0033 49.44C28.2029 49.44 29.2426 49 30.1223 48.12C31.002 47.24 31.4419 46.2 31.4419 45C31.4419 43.8 31.002 42.76 30.1223 41.88C29.2426 41 28.1629 40.56 26.8833 40.56H27.1232ZM27.1232 47.28C26.4834 47.28 25.9236 47.04 25.4438 46.56C24.9639 46.08 24.724 45.56 24.724 45C24.724 44.44 24.9639 43.92 25.4438 43.44C25.9236 42.96 26.4435 42.72 27.0033 42.72C27.5631 42.72 28.0829 42.96 28.5628 43.44C29.0426 43.92 29.2826 44.44 29.2826 45C29.2826 45.56 29.0426 46.08 28.5628 46.56C28.0829 47.04 27.5231 47.28 26.8833 47.28H27.1232ZM28.0829 61.92C28.0829 62.24 28.2029 62.48 28.4428 62.64C28.6828 62.8 28.9627 62.88 29.2826 62.88C29.6025 62.88 29.8824 62.8 30.1223 62.64C30.3622 62.48 30.4822 62.24 30.4822 61.92C30.4822 61.6 30.3622 61.32 30.1223 61.08C29.8824 60.84 29.6025 60.72 29.2826 60.72C28.9627 60.72 28.6828 60.84 28.4428 61.08C28.2029 61.32 28.0829 61.6 28.0829 61.92Z" fill="#323844"/>
</g>
<defs>
<clipPath id="clip0_297_312">
<rect width="72" height="72" fill="white" transform="matrix(1 0 0 -1 0 72)"/>
</clipPath>
</defs>
</svg>
