<svg width="72" height="72" viewBox="0 0 72 72" fill="none" xmlns="http://www.w3.org/2000/svg">
<g clip-path="url(#clip0_255_533)">
<path d="M29.9921 39.12H42.4682V8.4L36.2301 1.92L29.9921 8.4V39.12ZM43.188 40.8H29.2723C29.1124 40.8 28.9524 40.72 28.7925 40.56C28.6325 40.4 28.5525 40.24 28.5525 40.08V7.92C28.5525 7.76 28.6325 7.6 28.7925 7.44L35.7503 0.239998C35.9102 0.0800018 36.0702 0 36.2301 0C36.3901 0 36.55 0.0800018 36.71 0.239998L43.6678 7.44C43.8278 7.6 43.9077 7.76 43.9077 7.92V40.08C43.9077 40.24 43.8278 40.4 43.6678 40.56C43.5079 40.72 43.3479 40.8 43.188 40.8ZM54.4645 67.2C54.1446 67.2 53.9046 67.04 53.7447 66.72L42.7081 40.8H29.7522L18.7156 66.72C18.5557 66.88 18.3557 67 18.1158 67.08C17.8759 67.16 17.6759 67.16 17.516 67.08C17.356 67 17.2361 66.84 17.1561 66.6C17.0761 66.36 17.1161 66.16 17.2761 66L28.5525 39.6C28.7125 39.28 28.9524 39.12 29.2723 39.12H43.188C43.5079 39.12 43.7478 39.28 43.9077 39.6L55.1842 66C55.3442 66.16 55.3842 66.36 55.3042 66.6C55.2242 66.84 55.1043 66.96 54.9443 66.96L54.4645 67.2ZM62.6219 21.84H43.188C43.028 21.84 42.8681 21.76 42.7081 21.6C42.5482 21.44 42.4682 21.24 42.4682 21C42.4682 20.76 42.5482 20.56 42.7081 20.4C42.8681 20.24 43.028 20.16 43.188 20.16H59.263L42.9481 12.48H29.5122L13.1973 20.16H29.2723C29.4323 20.16 29.5922 20.24 29.7522 20.4C29.9121 20.56 29.9921 20.76 29.9921 21C29.9921 21.24 29.9121 21.44 29.7522 21.6C29.5922 21.76 29.4323 21.84 29.2723 21.84H9.83839C9.35854 21.84 9.07863 21.64 8.99866 21.24C8.91868 20.84 9.03864 20.56 9.35854 20.4L29.0324 11.04H29.2723H43.188H43.4279L63.1018 20.4C63.4217 20.56 63.5416 20.84 63.4616 21.24C63.3817 21.64 63.1018 21.84 62.6219 21.84ZM13.4373 70.32H22.3145V67.2H13.4373V70.32ZM23.0343 72H12.7175C12.5575 72 12.3976 71.92 12.2376 71.76C12.0777 71.6 11.9977 71.44 11.9977 71.28V66.24C11.9977 66.08 12.0777 65.92 12.2376 65.76C12.3976 65.6 12.5575 65.52 12.7175 65.52H23.0343C23.3542 65.52 23.5541 65.6 23.6341 65.76C23.7141 65.92 23.754 66.08 23.754 66.24V71.28C23.754 71.44 23.7141 71.6 23.6341 71.76C23.5541 71.92 23.3542 72 23.0343 72ZM50.1458 70.32H59.023V67.2H50.1458V70.32ZM59.7428 72H49.426C49.1061 72 48.9062 71.92 48.8262 71.76C48.7462 71.6 48.7062 71.44 48.7062 71.28V66.24C48.7062 66.08 48.7462 65.92 48.8262 65.76C48.9062 65.6 49.1061 65.52 49.426 65.52H59.7428C59.9028 65.52 60.0627 65.6 60.2227 65.76C60.3826 65.92 60.4626 66.08 60.4626 66.24V71.28C60.4626 71.44 60.3826 71.6 60.2227 71.76C60.0627 71.92 59.9028 72 59.7428 72ZM23.5141 54C23.3542 54 23.1942 53.88 23.0343 53.64C22.8743 53.4 22.7943 53.16 22.7943 52.92C22.7943 52.68 22.8743 52.56 23.0343 52.56L42.7081 39.36C42.8681 39.2 43.068 39.16 43.3079 39.24C43.5479 39.32 43.7078 39.44 43.7878 39.6C43.8678 39.76 43.9077 39.92 43.9077 40.08C43.9077 40.24 43.8278 40.4 43.6678 40.56L23.994 53.76L23.5141 54ZM48.9462 54C48.7862 54 48.6263 53.92 48.4663 53.76L28.7925 40.56C28.6325 40.4 28.5525 40.24 28.5525 40.08C28.5525 39.92 28.5925 39.76 28.6725 39.6C28.7525 39.44 28.9124 39.32 29.1524 39.24C29.3923 39.16 29.5922 39.2 29.7522 39.36L49.426 52.56C49.586 52.56 49.666 52.68 49.666 52.92C49.666 53.16 49.586 53.4 49.426 53.64C49.2661 53.88 49.1061 54 48.9462 54ZM54.4645 67.2C54.4645 67.2 54.3845 67.12 54.2245 66.96L23.2742 53.76C23.1142 53.76 22.9943 53.64 22.9143 53.4C22.8343 53.16 22.8343 52.96 22.9143 52.8C22.9943 52.64 23.1142 52.52 23.2742 52.44C23.4341 52.36 23.6741 52.32 23.994 52.32L54.9443 65.52C55.1043 65.68 55.2242 65.84 55.3042 66C55.3842 66.16 55.3842 66.4 55.3042 66.72C55.2242 67.04 54.9443 67.2 54.4645 67.2ZM17.9958 67.2C17.516 67.2 17.2361 67.04 17.1561 66.72C17.0761 66.4 17.0761 66.16 17.1561 66C17.2361 65.84 17.356 65.68 17.516 65.52L48.4663 52.32C48.7862 52.32 49.0261 52.36 49.1861 52.44C49.3461 52.52 49.466 52.64 49.546 52.8C49.626 52.96 49.626 53.16 49.546 53.4C49.466 53.64 49.3461 53.76 49.1861 53.76L17.9958 67.2ZM9.83839 25.2C9.51849 25.2 9.27857 25.12 9.11862 24.96C8.95867 24.8 8.87869 24.64 8.87869 24.48V21.12C8.87869 20.8 8.95867 20.56 9.11862 20.4C9.27857 20.24 9.47851 20.16 9.71843 20.16C9.95836 20.16 10.1583 20.24 10.3182 20.4C10.4782 20.56 10.5582 20.8 10.5582 21.12V24.48C10.5582 24.64 10.4782 24.8 10.3182 24.96C10.1583 25.12 9.99834 25.2 9.83839 25.2ZM9.83839 25.2C9.51849 25.2 9.27857 25.32 9.11862 25.56C8.95867 25.8 8.87869 26.04 8.87869 26.28C8.87869 26.52 8.95867 26.72 9.11862 26.88C9.27857 27.04 9.47851 27.12 9.71843 27.12C9.95836 27.12 10.1583 27.04 10.3182 26.88C10.4782 26.72 10.5582 26.52 10.5582 26.28C10.5582 26.04 10.4782 25.8 10.3182 25.56C10.1583 25.32 9.99834 25.2 9.83839 25.2ZM9.83839 28.56C9.03864 28.56 8.39884 28.32 7.91899 27.84C7.43914 27.36 7.19922 26.8 7.19922 26.16C7.19922 25.52 7.43914 24.96 7.91899 24.48C8.39884 24 8.99866 23.76 9.71843 23.76C10.4382 23.76 11.038 24 11.5179 24.48C11.9977 24.96 12.2376 25.52 12.2376 26.16C12.2376 26.8 11.9977 27.36 11.5179 27.84C11.038 28.32 10.4782 28.56 9.83839 28.56ZM62.6219 25.2C62.462 25.2 62.302 25.12 62.1421 24.96C61.9821 24.8 61.9021 24.64 61.9021 24.48V21.12C61.9021 20.8 61.9821 20.56 62.1421 20.4C62.302 20.24 62.5019 20.16 62.7419 20.16C62.9818 20.16 63.1817 20.24 63.3417 20.4C63.5016 20.56 63.5816 20.8 63.5816 21.12V24.48C63.5816 24.64 63.5016 24.8 63.3417 24.96C63.1817 25.12 62.9418 25.2 62.6219 25.2ZM62.6219 25.2C62.462 25.2 62.302 25.32 62.1421 25.56C61.9821 25.8 61.9021 26.04 61.9021 26.28C61.9021 26.52 61.9821 26.72 62.1421 26.88C62.302 27.04 62.5019 27.12 62.7419 27.12C62.9818 27.12 63.1817 27.04 63.3417 26.88C63.5016 26.72 63.5816 26.52 63.5816 26.28C63.5816 26.04 63.5016 25.8 63.3417 25.56C63.1817 25.32 62.9418 25.2 62.6219 25.2ZM62.6219 28.56C61.9821 28.56 61.4223 28.32 60.9424 27.84C60.4626 27.36 60.2227 26.8 60.2227 26.16C60.2227 25.52 60.4626 24.96 60.9424 24.48C61.4223 24 62.0221 23.76 62.7419 23.76C63.4616 23.76 64.0615 24 64.5413 24.48C65.0212 24.96 65.2611 25.52 65.2611 26.16C65.2611 26.8 65.0212 27.36 64.5413 27.84C64.0615 28.32 63.4217 28.56 62.6219 28.56ZM62.6219 36.24H43.188C43.028 36.24 42.8681 36.16 42.7081 36C42.5482 35.84 42.4682 35.64 42.4682 35.4C42.4682 35.16 42.5482 34.96 42.7081 34.8C42.8681 34.64 43.028 34.56 43.188 34.56H59.263L42.9481 26.88H29.5122L13.1973 34.56H29.2723C29.4323 34.56 29.5922 34.64 29.7522 34.8C29.9121 34.96 29.9921 35.16 29.9921 35.4C29.9921 35.64 29.9121 35.84 29.7522 36C29.5922 36.16 29.4323 36.24 29.2723 36.24H9.83839C9.35854 36.24 9.07863 36 8.99866 35.52C8.91868 35.04 9.03864 34.72 9.35854 34.56L29.0324 25.2H29.2723H43.188H43.4279L63.1018 34.56C63.4217 34.72 63.5416 35.04 63.4616 35.52C63.3817 36 63.1018 36.24 62.6219 36.24ZM29.2723 40.8C29.1124 40.8 28.9524 40.72 28.7925 40.56C28.6325 40.4 28.5525 40.2 28.5525 39.96C28.5525 39.72 28.6325 39.52 28.7925 39.36L42.7081 25.44C42.8681 25.28 43.028 25.2 43.188 25.2C43.3479 25.2 43.5079 25.28 43.6678 25.44C43.8278 25.6 43.9077 25.8 43.9077 26.04C43.9077 26.28 43.8278 26.48 43.6678 26.64L29.7522 40.56C29.5922 40.72 29.4323 40.8 29.2723 40.8ZM43.188 40.8C43.028 40.8 42.8681 40.72 42.7081 40.56L28.7925 26.64C28.6325 26.48 28.5525 26.28 28.5525 26.04C28.5525 25.8 28.6325 25.6 28.7925 25.44C28.9524 25.28 29.1124 25.2 29.2723 25.2C29.4323 25.2 29.5922 25.28 29.7522 25.44L43.6678 39.36C43.8278 39.52 43.9077 39.72 43.9077 39.96C43.9077 40.2 43.8278 40.4 43.6678 40.56C43.5079 40.72 43.3479 40.8 43.188 40.8ZM62.6219 39.6C62.462 39.6 62.302 39.52 62.1421 39.36C61.9821 39.2 61.9021 39.04 61.9021 38.88V35.28C61.9021 35.12 61.9821 34.96 62.1421 34.8C62.302 34.64 62.5019 34.56 62.7419 34.56C62.9818 34.56 63.1817 34.64 63.3417 34.8C63.5016 34.96 63.5816 35.12 63.5816 35.28V38.88C63.5816 39.04 63.5016 39.2 63.3417 39.36C63.1817 39.52 62.9418 39.6 62.6219 39.6ZM62.6219 39.6C62.462 39.6 62.302 39.68 62.1421 39.84C61.9821 40 61.9021 40.2 61.9021 40.44C61.9021 40.68 61.9821 40.88 62.1421 41.04C62.302 41.2 62.5019 41.28 62.7419 41.28C62.9818 41.28 63.1817 41.2 63.3417 41.04C63.5016 40.88 63.5816 40.68 63.5816 40.44C63.5816 40.2 63.5016 40 63.3417 39.84C63.1817 39.68 62.9418 39.6 62.6219 39.6ZM62.6219 42.96C61.9821 42.96 61.4223 42.72 60.9424 42.24C60.4626 41.76 60.2227 41.16 60.2227 40.44C60.2227 39.72 60.4626 39.12 60.9424 38.64C61.4223 38.16 62.0221 37.92 62.7419 37.92C63.4616 37.92 64.0615 38.16 64.5413 38.64C65.0212 39.12 65.2611 39.72 65.2611 40.44C65.2611 41.16 65.0212 41.76 64.5413 42.24C64.0615 42.72 63.4217 42.96 62.6219 42.96ZM9.83839 39.6C9.51849 39.6 9.27857 39.52 9.11862 39.36C8.95867 39.2 8.87869 39.04 8.87869 38.88V35.28C8.87869 35.12 8.95867 34.96 9.11862 34.8C9.27857 34.64 9.47851 34.56 9.71843 34.56C9.95836 34.56 10.1583 34.64 10.3182 34.8C10.4782 34.96 10.5582 35.12 10.5582 35.28V38.88C10.5582 39.04 10.4782 39.2 10.3182 39.36C10.1583 39.52 9.99834 39.6 9.83839 39.6ZM9.83839 39.6C9.51849 39.6 9.27857 39.68 9.11862 39.84C8.95867 40 8.87869 40.2 8.87869 40.44C8.87869 40.68 8.95867 40.88 9.11862 41.04C9.27857 41.2 9.47851 41.28 9.71843 41.28C9.95836 41.28 10.1583 41.2 10.3182 41.04C10.4782 40.88 10.5582 40.68 10.5582 40.44C10.5582 40.2 10.4782 40 10.3182 39.84C10.1583 39.68 9.99834 39.6 9.83839 39.6ZM9.83839 42.96C9.03864 42.96 8.39884 42.72 7.91899 42.24C7.43914 41.76 7.19922 41.16 7.19922 40.44C7.19922 39.72 7.43914 39.12 7.91899 38.64C8.39884 38.16 8.99866 37.92 9.71843 37.92C10.4382 37.92 11.038 38.16 11.5179 38.64C11.9977 39.12 12.2376 39.72 12.2376 40.44C12.2376 41.16 11.9977 41.76 11.5179 42.24C11.038 42.72 10.4782 42.96 9.83839 42.96ZM43.188 26.88C43.028 26.88 42.8681 26.8 42.7081 26.64L28.7925 12.72C28.6325 12.56 28.5525 12.36 28.5525 12.12C28.5525 11.88 28.6325 11.68 28.7925 11.52C28.9524 11.36 29.1124 11.28 29.2723 11.28C29.4323 11.28 29.5922 11.36 29.7522 11.52L43.6678 25.44C43.8278 25.6 43.9077 25.8 43.9077 26.04C43.9077 26.28 43.8278 26.48 43.6678 26.64C43.5079 26.8 43.3479 26.88 43.188 26.88ZM29.2723 26.88C29.1124 26.88 28.9524 26.8 28.7925 26.64C28.6325 26.48 28.5525 26.28 28.5525 26.04C28.5525 25.8 28.6325 25.6 28.7925 25.44L42.7081 11.52C42.8681 11.36 43.028 11.28 43.188 11.28C43.3479 11.28 43.5079 11.36 43.6678 11.52C43.8278 11.68 43.9077 11.88 43.9077 12.12C43.9077 12.36 43.8278 12.56 43.6678 12.72L29.7522 26.64C29.5922 26.8 29.4323 26.88 29.2723 26.88Z" fill="#323844"/>
</g>
<defs>
<clipPath id="clip0_255_533">
<rect width="72" height="72" fill="white" transform="matrix(1 0 0 -1 0 72)"/>
</clipPath>
</defs>
</svg>
