<svg width="72" height="72" viewBox="0 0 72 72" fill="none" xmlns="http://www.w3.org/2000/svg">
<g clip-path="url(#clip0_255_559)">
<path d="M68.6186 11.28V8.88C68.6186 8.72 68.4986 8.52 68.2587 8.28C68.0188 8.04 67.7388 7.92 67.4189 7.92C67.099 7.92 66.8591 8.04 66.6992 8.28C66.5392 8.52 66.4592 8.72 66.4592 8.88V11.28H64.06V8.88C64.06 8.72 63.94 8.52 63.7001 8.28C63.4602 8.04 63.2203 7.92 62.9803 7.92C62.7404 7.92 62.5005 8.04 62.2606 8.28C62.0206 8.52 61.9007 8.72 61.9007 8.88V11.28H59.5014V3.36C59.5014 2.4 59.1815 1.6 58.5417 0.959999C57.9019 0.32 57.1422 0 56.2624 0C55.3827 0 54.583 0.32 53.8632 0.959999C53.1434 1.6 52.7835 2.4 52.7835 3.36V11.28H50.6242V8.88C50.6242 8.72 50.5042 8.52 50.2643 8.28C50.0244 8.04 49.7445 7.92 49.4246 7.92C49.1047 7.92 48.8647 8.04 48.7048 8.28C48.5448 8.52 48.4649 8.72 48.4649 8.88V11.28H46.0656V8.88C46.0656 8.72 45.9456 8.52 45.7057 8.28C45.4658 8.04 45.2259 7.92 44.9859 7.92C44.746 7.92 44.5061 8.04 44.2662 8.28C44.0262 8.52 43.9063 8.72 43.9063 8.88V11.28C42.9466 11.28 42.1468 11.6 41.507 12.24C40.8672 12.88 40.5473 13.6 40.5473 14.4C40.5473 15.2 40.7473 15.88 41.1471 16.44C41.547 17 42.0669 17.44 42.7067 17.76C40.7873 19.52 38.548 21.04 35.9888 22.32C33.4296 21.04 31.1903 19.52 29.2709 17.76C29.9107 17.44 30.4305 17 30.8304 16.44C31.2302 15.88 31.4302 15.2 31.4302 14.4C31.4302 13.6 31.1103 12.88 30.4705 12.24C29.8307 11.6 29.0309 11.28 28.0712 11.28V8.88C28.0712 8.72 27.9513 8.52 27.7113 8.28C27.4714 8.04 27.2315 7.92 26.9916 7.92C26.7516 7.92 26.5117 8.04 26.2718 8.28C26.0319 8.52 25.9119 8.72 25.9119 8.88V11.28H23.5127V8.88C23.5127 8.72 23.4327 8.52 23.2727 8.28C23.1128 8.04 22.8729 7.92 22.553 7.92C22.2331 7.92 21.9531 8.04 21.7132 8.28C21.4733 8.52 21.3533 8.72 21.3533 8.88V11.28H19.194V3.36C19.194 2.4 18.8341 1.6 18.1143 0.959999C17.3946 0.32 16.5948 0 15.7151 0C14.8354 0 14.0756 0.32 13.4358 0.959999C12.796 1.6 12.4761 2.4 12.4761 3.36V11.28H10.0769V8.88C10.0769 8.72 9.95689 8.52 9.71696 8.28C9.47704 8.04 9.23711 7.92 8.99719 7.92C8.75726 7.92 8.51734 8.04 8.27741 8.28C8.03749 8.52 7.91753 8.72 7.91753 8.88V11.28H5.51828V8.88C5.51828 8.72 5.4383 8.52 5.27835 8.28C5.1184 8.04 4.87848 7.92 4.55858 7.92C4.23868 7.92 3.95876 8.04 3.71884 8.28C3.47891 8.52 3.35895 8.72 3.35895 8.88V11.28C2.39925 11.28 1.5995 11.6 0.9597 12.24C0.3199 12.88 0 13.68 0 14.64C0 15.6 0.3199 16.4 0.9597 17.04C1.5995 17.68 2.39925 18 3.35895 18H4.07873C6.15808 20.56 8.9572 22.64 12.4761 24.24V70.8C12.4761 71.12 12.5561 71.4 12.716 71.64C12.876 71.88 13.1159 72 13.4358 72H17.9944C18.3143 72 18.5942 71.88 18.8341 71.64C19.074 71.4 19.194 71.12 19.194 70.8V26.4C20.9535 26.72 22.7929 26.88 24.7123 26.88C28.711 26.88 32.4699 26.16 35.9888 24.72C39.5077 26.32 43.2665 27.12 47.2652 27.12C49.1846 26.96 51.0241 26.72 52.7835 26.4V70.8C52.7835 71.12 52.9035 71.4 53.1434 71.64C53.3833 71.88 53.6632 72 53.9831 72H58.5417C58.8616 72 59.1015 71.88 59.2615 71.64C59.4214 71.4 59.5014 71.12 59.5014 70.8V24.24C63.0203 22.64 65.8194 20.56 67.8988 18H68.6186C69.5783 18 70.378 17.68 71.0178 17.04C71.6576 16.4 71.9775 15.6 71.9775 14.64C71.9775 13.68 71.6576 12.88 71.0178 12.24C70.378 11.6 69.5783 11.28 68.6186 11.28ZM55.1828 3.36C55.1828 3.04 55.2627 2.76 55.4227 2.52C55.5826 2.28 55.8226 2.16 56.1425 2.16C56.4624 2.16 56.7423 2.28 56.9822 2.52C57.2221 2.76 57.3421 3.04 57.3421 3.36V11.28H55.1828V3.36ZM14.6354 3.36C14.6354 3.04 14.7554 2.76 14.9953 2.52C15.2352 2.28 15.5152 2.16 15.8351 2.16C16.155 2.16 16.3949 2.28 16.5548 2.52C16.7148 2.76 16.7948 3.04 16.7948 3.36V11.28H14.6354V3.36ZM2.15933 14.64C2.15933 14.32 2.27929 14.04 2.51921 13.8C2.75914 13.56 3.03905 13.44 3.35895 13.44H28.0712C28.3911 13.44 28.671 13.56 28.911 13.8C29.1509 14.04 29.2709 14.32 29.2709 14.64C29.2709 14.96 29.1509 15.24 28.911 15.48C28.671 15.72 28.3911 15.84 28.0712 15.84H3.35895C3.03905 15.84 2.75914 15.72 2.51921 15.48C2.27929 15.24 2.15933 14.96 2.15933 14.64ZM16.7948 23.52C15.995 23.36 15.2752 23.12 14.6354 22.8V18H16.7948V23.52ZM7.19775 18H12.4761V21.6C10.3968 20.64 8.6373 19.44 7.19775 18ZM16.7948 69.84H14.6354V25.2L16.7948 25.92V69.84ZM24.7123 24.72C22.7929 24.72 20.9535 24.56 19.194 24.24V18H26.3918C28.1512 20.08 30.3905 21.92 33.1097 23.52C30.5505 24.32 27.7513 24.72 24.7123 24.72ZM47.2652 24.72C44.2262 24.72 41.4271 24.32 38.8679 23.52C41.587 21.92 43.8263 20.08 45.5858 18H52.7835V24.24C51.0241 24.56 49.1846 24.72 47.2652 24.72ZM55.1828 69.84V18H57.3421V69.84H55.1828ZM59.5014 21.84V18H64.7798C63.3402 19.44 61.5808 20.72 59.5014 21.84ZM68.6186 15.84H43.9063C43.5864 15.84 43.3065 15.72 43.0665 15.48C42.8266 15.24 42.7067 14.96 42.7067 14.64C42.7067 14.32 42.8266 14.04 43.0665 13.8C43.3065 13.56 43.5864 13.44 43.9063 13.44H68.6186C68.9385 13.44 69.2184 13.56 69.4583 13.8C69.6982 14.04 69.8182 14.32 69.8182 14.64C69.8182 14.96 69.6982 15.24 69.4583 15.48C69.2184 15.72 68.9385 15.84 68.6186 15.84Z" fill="#323844"/>
</g>
<defs>
<clipPath id="clip0_255_559">
<rect width="72" height="72" fill="white" transform="matrix(1 0 0 -1 0 72)"/>
</clipPath>
</defs>
</svg>
